<svg width="240" height="240" viewBox="0 0 240 240" fill="none" xmlns="http://www.w3.org/2000/svg">
<path opacity="0.5" fill-rule="evenodd" clip-rule="evenodd" d="M174.511 97.1047C174.511 97.1047 192.323 95.9053 196.501 112.114C200.575 127.795 195.47 135.336 191.58 141.082C191.481 141.227 191.384 141.372 191.287 141.515C188.792 145.209 184.933 148.903 181.764 151.936C179.954 153.667 178.37 155.184 177.393 156.362C175.005 159.209 173.667 162.791 173.604 166.508C173.697 167.387 174.074 168.794 174.473 170.283C175.178 172.917 175.953 175.809 175.353 176.493C174.197 177.53 172.725 178.147 171.175 178.243C170.416 178.17 169.679 177.95 169.005 177.595C169.078 177.771 169.115 177.961 169.114 178.151C169.113 178.342 169.073 178.531 168.998 178.706C168.922 178.882 168.812 179.04 168.674 179.172C168.537 179.304 168.374 179.407 168.195 179.475C166.868 180.156 164.957 180.512 164.698 179.864C164.439 179.216 160.909 171.76 157.961 171.76C154.121 171.675 150.327 170.906 146.756 169.491C143.226 168 142.157 161.516 142.157 161.516C142.157 161.516 124.215 162.845 114.499 160.155C107.507 157.884 100.941 154.466 95.0677 150.041C88.1517 152.258 80.8545 153.031 73.6281 152.31C63.9123 150.689 53.0953 147.059 55.2652 136.783C51.8851 136.198 48.7889 134.523 46.4497 132.011C44.1105 129.5 42.6568 126.292 42.3108 122.876C41.0477 110.622 43.6062 101.967 50.5045 96.424C55.5046 92.502 60.775 88.9381 66.2765 85.7589C66.2765 85.7589 61.0299 77.2658 67.2157 71.5929C72.3903 66.8317 78.9721 63.8847 85.9672 63.197C89.6661 62.8669 93.3695 63.7793 96.4927 65.7903C96.4927 65.7903 106.079 58.6263 112.977 59.0153C117.751 59.7049 122.237 61.7145 125.932 64.8178C125.932 64.8178 136.878 59.8257 145.104 64.4288C153.33 69.032 154.399 72.7923 154.399 72.7923C154.399 72.7923 168.714 67.087 174.511 78.5949C180.308 90.1027 176.13 95.4839 176.13 95.4839L174.511 97.1047ZM159.746 167.373C159.824 167.309 159.887 167.257 159.937 167.222V167.351C160.488 166.93 158.318 164.79 154.82 163.17C152.397 162.227 149.838 161.68 147.242 161.549C145.493 163.299 146.691 165.504 151.97 167.773C156.769 169.836 158.972 168.014 159.746 167.373ZM190.024 130.202C190.477 128.755 190.791 127.268 190.963 125.761C191.437 122.494 191.25 119.164 190.412 115.971C189.711 113.434 188.451 111.087 186.724 109.102C184.998 107.116 182.85 105.542 180.437 104.496C174.77 101.675 170.171 103.296 165.054 105.306C163.323 106.04 161.842 107.26 160.79 108.819C159.738 110.379 159.16 112.21 159.127 114.091C159.127 115.582 155.047 115.193 153.039 113.702C151.031 112.211 155.209 105.727 155.209 105.727C155.209 105.727 151.452 104.917 151.031 102.486C150.61 100.055 154.95 98.3041 154.95 98.3041C153.696 95.443 152.615 92.5094 151.711 89.5192C151.711 88.4171 153.298 87.6391 154.529 87.8984C155.759 88.1577 158.188 97.0399 158.447 98.142C158.625 98.8972 159.578 98.5567 160.504 98.2257C160.929 98.0736 161.349 97.9235 161.686 97.8827C162.755 97.753 158.026 87.866 157.767 87.477C157.508 87.088 159.645 85.8562 160.455 85.8562C162.553 89.3098 164.362 92.9311 165.864 96.6833C167.017 96.0755 168.102 95.3475 169.102 94.5114C169.939 93.6736 166.687 87.8155 165.602 85.8622C165.47 85.6236 165.369 85.4433 165.313 85.3375C164.795 84.365 166.9 83.8463 167.872 83.8463C168.843 83.8463 171.402 90.3296 171.402 90.3296C171.487 89.1101 171.487 87.8861 171.402 86.6666C171.109 85.0704 170.459 83.5614 169.5 82.2531C168.54 80.9448 167.297 79.8714 165.864 79.1135C162.324 77.1284 159.64 77.9092 156.169 78.9194C155.162 79.2123 154.089 79.5246 152.909 79.7943C149.915 80.4788 149.115 78.8298 148.1 76.7394C147.338 75.1672 146.454 73.3454 144.424 72.0791C139.696 69.1292 136.068 69.2589 129.041 70.7501C122.013 72.2412 121.074 76.2609 122.013 79.2432C122.904 82.0726 126.127 82.8304 127.368 83.1221C127.435 83.1379 127.496 83.1523 127.551 83.1656C128.62 83.4249 128.361 84.9161 127.13 86.0182C126.532 86.6297 125.778 87.065 124.95 87.2765C124.122 87.488 123.251 87.4677 122.434 87.2177C120.458 87.0062 118.595 86.1936 117.095 84.8894C115.596 83.5853 114.531 81.8523 114.046 79.9239C112.168 74.2511 119.292 67.7677 119.292 67.7677C117.146 65.018 116.365 65.1282 112.593 65.6607C112.096 65.7309 111.547 65.8084 110.937 65.8876C107.914 66.2798 106.041 67.5223 104.018 68.8646C102.53 69.852 100.961 70.8933 98.7921 71.6901C95.596 72.8645 92.8675 72.1039 89.8567 71.2647C88.0471 70.7603 86.1355 70.2275 83.9593 70.0693C81.6895 70.0872 79.4532 70.6184 77.4174 71.6232C75.3816 72.628 73.5991 74.0804 72.2031 75.8719C70.2133 77.7573 71.4836 81.0786 72.008 82.4496C72.1237 82.7522 72.2031 82.9597 72.2031 83.0359C72.2031 83.2973 73.337 83.1347 74.4608 82.9735C75.1489 82.8748 75.8332 82.7766 76.2514 82.7766C76.8314 82.7766 77.1508 81.9041 77.5174 80.903C77.8466 80.0036 78.2139 79.0004 78.8423 78.4328C78.9842 78.3046 79.1298 78.1686 79.279 78.0293C80.5257 76.8652 82.0226 75.4675 83.7002 76.423C85.5786 77.4927 84.2184 78.9839 82.34 79.9239C80.4616 80.864 80.4616 84.1057 80.4616 84.1057C82.1817 85.6346 84.1399 86.872 86.2587 87.7687C88.5109 88.8959 91.0513 89.314 93.5455 88.9682C95.683 89.1302 97.7233 89.3572 97.5938 90.589C97.4643 91.8208 93.8046 93.9927 89.7564 93.9927C85.9605 93.5539 82.2923 92.3521 78.9718 90.4593C77.6684 89.835 76.2494 89.4895 74.8051 89.4448C73.3609 89.4002 71.9232 89.6574 70.5838 90.2C63.7305 93.0141 57.6703 97.4661 52.9334 103.167C50.6134 106.127 49.1358 109.66 48.6569 113.392C48.178 117.124 48.7157 120.916 50.213 124.367C52.7715 130.04 61.289 131.661 61.289 131.661C62.9706 132.339 62.7896 134.905 62.6864 136.369C62.6663 136.653 62.6492 136.895 62.6492 137.074C62.3786 137.825 62.2845 138.628 62.3744 139.42C62.4643 140.213 62.7356 140.974 63.1674 141.645C65.3029 143.374 67.8652 144.494 70.5838 144.887C71.4561 144.887 68.7167 140.132 66.9548 137.074C66.2308 135.817 65.6718 134.847 65.5964 134.611C65.3373 133.8 66.5356 131.369 67.8958 131.92C68.7996 132.286 71.0618 137.934 72.6777 141.968C73.4936 144.005 74.1448 145.63 74.373 145.956C74.9437 146.772 77.9774 146.607 79.3404 146.533C79.6017 146.518 79.8016 146.507 79.911 146.507C80.2997 146.507 79.9374 146.02 79.2532 145.101C78.7403 144.411 78.0464 143.479 77.3525 142.326C75.5175 138.722 73.9899 134.97 72.7861 131.11C72.6565 130.299 73.4014 128.776 74.6969 129.359C75.4888 129.716 78.3747 135.512 80.6834 140.149C82.1511 143.097 83.3855 145.577 83.7002 145.892C84.3247 146.517 85.8354 146.177 86.672 145.99C86.9202 145.934 87.109 145.892 87.1979 145.892C87.3203 145.892 87.1889 145.728 86.9182 145.39C86.3291 144.654 85.0801 143.095 84.3479 140.608C83.587 138.023 80.9056 132.546 79.2252 129.114C78.5453 127.726 78.0293 126.672 77.8707 126.28C77.787 126.005 77.7594 125.716 77.7894 125.431C77.8195 125.146 77.9066 124.869 78.0456 124.618C78.1846 124.367 78.3726 124.147 78.5985 123.97C78.8244 123.793 79.0835 123.663 79.3605 123.589C80.0406 123.589 80.8502 124.14 84.0888 132.925C85.5451 137.355 87.7346 141.508 90.566 145.211H92.4444C91.4594 144.174 90.8445 142.841 90.6956 141.418C90.1774 138.565 89.6268 133.573 89.6268 133.573C89.6268 133.573 90.0479 131.79 89.3677 131.272C88.6876 130.753 82.0485 117.657 81.9189 117.106C81.7894 116.555 83.4087 114.934 84.0888 114.934C86.5218 119.113 88.6853 123.444 90.566 127.9V126.15C91.0812 123.94 91.7633 121.773 92.6064 119.667C92.6064 119.279 90.8102 115.958 89.2637 113.099C88.0947 110.937 87.0683 109.039 87.0683 108.872C87.2672 108.391 87.6043 107.981 88.0368 107.692C88.4692 107.403 88.9775 107.25 89.4973 107.251C90.6956 107.381 93.5455 117.495 93.5455 117.495C94.7531 115.733 96.2032 114.15 97.8529 112.794C100.959 109.953 104.795 108.034 108.929 107.251C109.899 107.129 110.88 107.36 111.695 107.901C112.509 108.443 113.102 109.259 113.366 110.201C113.47 110.98 112.971 110.948 112.287 110.904C112.116 110.893 111.934 110.882 111.747 110.882C108.158 111.447 104.795 112.995 102.031 115.355C99.5859 118.207 97.7897 121.557 96.7663 125.173C95.743 128.789 95.517 132.584 96.104 136.296C98.2739 144.53 107.31 151.305 117.706 154.255C124.853 156.283 134.557 155.63 142.155 155.118C145.608 154.886 148.626 154.683 150.772 154.774C157.638 155.065 165.605 161.938 165.605 161.938C165.605 161.938 171.013 153.996 172.082 152.764C172.831 151.9 169.218 147.34 166.713 144.177C165.645 142.829 164.778 141.734 164.536 141.288C163.921 140.157 164.687 139.996 165.686 139.786C166.004 139.719 166.345 139.647 166.673 139.538C168.033 139.084 174.09 149.522 174.09 149.522L177.49 147.221C177.778 147.029 173.805 141.328 171.604 138.17C170.833 137.063 170.279 136.269 170.203 136.134C169.912 135.616 171.11 133.152 172.47 133.573C173.219 133.805 175.116 136.974 176.849 139.868C178.263 142.232 179.568 144.412 180.049 144.66C181.117 145.211 183.546 141.677 183.806 141.159C181.273 135.91 178.44 130.812 175.32 125.891C174.252 124.27 176.389 123.33 177.199 123.33C177.637 123.33 179.859 127.557 181.955 131.543C183.731 134.92 185.415 138.124 185.846 138.436C186.785 139.117 188.275 133.962 188.275 132.893C188.275 132.428 188.344 132.399 188.389 132.439C188.361 132.383 188.317 132.286 188.25 132.125C188.137 131.852 187.66 131.939 187.165 132.028C185.957 132.248 184.645 132.486 188.275 127.555C189.084 127.425 190.024 130.202 190.024 130.202ZM102.776 137.723C102.007 130.487 103.72 123.205 107.633 117.073C107.633 117.073 111.487 116.652 110.775 118.889C109.075 123.195 108.091 127.75 107.86 132.374C108.022 134.838 108.443 136.254 108.714 137.165C108.931 137.896 109.052 138.302 108.864 138.663C108.443 139.473 103.197 138.436 102.776 137.723ZM132.584 143.865C133.303 143.642 133.934 143.447 134.352 143.622C135.388 144.011 134.061 145.567 132.538 146.248C131.372 146.748 130.088 146.91 128.834 146.716C127.58 146.521 126.406 145.977 125.446 145.146C122.304 142.812 120.199 140.575 120.199 139.862C120.213 139.538 120.299 139.22 120.451 138.934C120.603 138.647 120.818 138.398 121.079 138.205C121.34 138.012 121.641 137.881 121.959 137.819C122.278 137.758 122.606 137.77 122.92 137.852C123.636 137.989 124.918 139.438 126.223 140.912C127.395 142.237 128.584 143.582 129.397 144.011C130.399 144.541 131.577 144.176 132.584 143.865ZM58.108 109.005C59.8687 107.332 61.9547 106.04 64.2362 105.209C65.4021 104.82 68.9969 106.441 66.0498 108.353C63.1905 109.745 60.8522 112.017 59.3782 114.837C58.795 116.271 58.795 117.876 59.3782 119.31C59.3465 119.701 59.2229 120.08 59.0176 120.415C58.8122 120.749 58.5308 121.031 58.1963 121.236C57.8618 121.441 57.4836 121.565 57.0925 121.596C56.7013 121.628 56.3083 121.566 55.9453 121.417C53.6135 120.704 53.3868 117.884 54.0022 114.934C54.9496 112.696 56.3473 110.678 58.108 109.005ZM107.491 77.4089C99.2682 74.0504 88.2283 80.9453 94.5579 84.2642C103.698 79.6939 109.776 79.427 109.776 84.2644C109.776 85.2415 109.724 86.0436 109.679 86.7336C109.561 88.5454 109.493 89.5844 110.554 90.9916C112.907 94.1138 115.124 88.7064 115.124 88.7064C115.124 88.7064 116.632 81.1423 107.491 77.4089ZM115.82 105.177C121.069 101.291 125.138 100.552 129.874 99.6918L129.874 99.6917L129.875 99.6916L129.875 99.6915C130.901 99.5052 131.958 99.3133 133.064 99.0826C137.449 98.1681 138.008 98.6724 139.56 100.072C140.208 100.658 141.03 101.399 142.377 102.259C146.947 105.177 146.947 116.128 146.947 116.128C146.947 116.128 146.947 118.413 142.377 118.413C139.811 118.413 140.403 116.505 141.091 114.285C141.628 112.551 142.224 110.626 141.42 109.273C140.234 107.277 139.238 106.11 137.113 105.177C134.599 104.074 129.957 104.752 127.245 105.177C126.782 105.249 125.84 105.468 124.666 105.741C119.723 106.89 110.659 108.997 115.82 105.177ZM164.534 117.64C167.445 115.485 168.274 113.921 168.902 112.735C169.653 111.319 170.119 110.44 173.503 109.735C177.888 108.82 178.446 109.325 179.998 110.725C180.646 111.31 181.468 112.052 182.815 112.912C187.386 115.829 187.386 126.78 187.386 126.78C187.386 126.78 187.386 129.066 182.815 129.066C180.25 129.066 180.841 127.157 181.529 124.937C182.066 123.203 182.663 121.278 181.858 119.925C180.672 117.93 179.676 116.762 177.551 115.829C176.183 115.229 175.283 116.369 174.309 117.601C173.493 118.634 172.626 119.731 171.39 119.925C171.221 119.951 171.011 119.986 170.769 120.026C167.547 120.558 158.594 122.038 164.534 117.64ZM139.397 131.351C131.174 127.992 115.651 133.376 121.98 136.695C131.121 132.125 141.683 133.369 141.683 138.206C141.683 139.183 141.63 139.985 141.585 140.675C141.467 142.487 141.4 143.526 142.46 144.933C144.813 148.056 144.745 140.363 144.745 140.363C144.745 140.363 148.538 135.084 139.397 131.351Z" fill="#CF94FE"/>
</svg>
