<svg width="33" height="24" viewBox="0 0 33 24" fill="none" xmlns="http://www.w3.org/2000/svg">
  <path
    d="M27.21 1.07987e-05C30.1127 0.00389928 32.4648 2.35607 32.4688 5.2588V18.7412C32.4649 21.644 30.1128 23.9961 27.21 24H13.6856C12.0429 24.005 10.4661 23.3522 9.30863 22.1865L0.619175 13.4971C-0.206461 12.6704 -0.206322 11.3307 0.619175 10.5039L9.31546 1.81446C10.4712 0.650498 12.0453 -0.00306374 13.6856 1.07987e-05H27.21ZM13.6856 2.11817C12.6054 2.11742 11.569 2.54626 10.8057 3.31056L2.11625 12L10.8125 20.6895C11.5742 21.4522 12.6077 21.8817 13.6856 21.8828H27.21C28.9448 21.8828 30.3516 20.4761 30.3516 18.7412V5.2588C30.3515 4.4259 30.0206 3.62709 29.4317 3.0381C28.8426 2.44903 28.0431 2.11817 27.21 2.11817H13.6856ZM15.0918 6.66407C15.4178 6.5877 15.7591 6.70218 15.9727 6.95997L19.7637 10.7578L23.5537 6.95997C23.8976 6.61923 24.452 6.61944 24.7959 6.95997C24.9619 7.12549 25.0557 7.3506 25.0557 7.58497C25.0557 7.81938 24.9619 8.04443 24.7959 8.20997L21.0059 12L24.7959 15.791C25.0863 16.1417 25.0622 16.6556 24.7403 16.9775C24.4183 17.2994 23.9044 17.3236 23.5537 17.0332L19.7637 13.2432L15.9727 17.0332C15.7591 17.2911 15.4179 17.4064 15.0918 17.3301C14.7657 17.2535 14.5102 16.9981 14.4336 16.6719C14.3573 16.3459 14.4726 16.0046 14.7305 15.791L18.5205 12L14.7305 8.20314C14.4725 7.98946 14.3571 7.64747 14.4336 7.3213C14.5102 6.99517 14.7657 6.74062 15.0918 6.66407Z"
    fill="currentColor" />
</svg>