<svg width="31" height="24" viewBox="0 0 31 24" fill="none" xmlns="http://www.w3.org/2000/svg">
  <path
    d="M30.5928 10.5171C29.7656 7.30765 26.2386 7.54514 26.2386 7.54514L26.5592 7.2242C26.5592 7.2242 27.3864 6.15868 26.2386 3.88C25.0907 1.60131 22.2562 2.73103 22.2562 2.73103C22.2562 2.73103 22.0446 1.98644 20.4157 1.07497C18.7869 0.163498 16.6194 1.152 16.6194 1.152C15.8878 0.537495 14.9995 0.139575 14.0543 0.00302698C12.6883 -0.0739989 10.7901 1.34456 10.7901 1.34456C10.1717 0.946357 9.43841 0.765679 8.70598 0.831055C7.32087 0.967232 6.01762 1.55076 4.99298 2.49353C3.76813 3.61682 4.807 5.29855 4.807 5.29855C3.71766 5.92807 2.67406 6.63376 1.68398 7.41035C0.318051 8.50797 -0.188559 10.2218 0.0615394 12.6481C0.130059 13.3245 0.417898 13.9598 0.881088 14.4571C1.34428 14.9543 1.95735 15.2861 2.62666 15.4018C2.197 17.4365 4.33887 18.1555 6.26271 18.4764C7.69361 18.6191 9.13853 18.4661 10.508 18.0271C11.6709 18.9032 12.9712 19.58 14.3557 20.0298C16.2795 20.5625 19.8322 20.2993 19.8322 20.2993C19.8322 20.2993 20.0438 21.5831 20.7428 21.8784C21.4499 22.1587 22.2012 22.3108 22.9616 22.3277C23.5452 22.3277 24.2442 23.804 24.2955 23.9324C24.3468 24.0608 24.7251 23.9902 24.9881 23.8554C25.0234 23.8419 25.0556 23.8215 25.0829 23.7954C25.1102 23.7693 25.132 23.7379 25.1469 23.7032C25.1619 23.6685 25.1697 23.6311 25.1699 23.5933C25.1702 23.5555 25.1629 23.518 25.1484 23.4831C25.2819 23.5534 25.4278 23.597 25.578 23.6115C25.8849 23.5924 26.1764 23.4703 26.4053 23.2648C26.5913 23.053 26.1103 21.7693 26.059 21.2878C26.0715 20.5518 26.3364 19.8425 26.8093 19.2788C27.3416 18.6369 28.7844 17.4879 29.5604 16.3389C30.3363 15.19 31.4201 13.7008 30.5928 10.5171ZM23.3528 21.4291C23.2438 21.5061 22.8205 21.9875 21.7753 21.5382C20.73 21.0889 20.4927 20.6524 20.839 20.3058C21.3531 20.3318 21.8597 20.4401 22.3396 20.6267C23.0322 20.9476 23.4618 21.3713 23.3528 21.4547V21.4291ZM26.8285 17.4686C25.9916 18.0351 26.3542 17.8786 25.7576 18.5663C25.546 18.8102 24.475 20.3828 24.475 20.3828C24.475 20.3828 22.8975 19.022 21.538 18.9642C20.1785 18.9065 17.049 19.4456 14.9905 18.8615C12.932 18.2774 11.1428 16.9359 10.7132 15.3055C10.5969 14.5705 10.6417 13.819 10.8443 13.103C11.047 12.387 11.4026 11.7237 11.8867 11.1589C12.4341 10.6917 13.0999 10.3851 13.8106 10.2731C13.9965 10.2731 14.1569 10.3309 14.1312 10.1383C14.0789 9.9518 13.9615 9.79022 13.8003 9.68303C13.639 9.57583 13.4447 9.53012 13.2527 9.55423C12.434 9.70929 11.6746 10.0893 11.0595 10.6519C9.79601 11.6904 9.95469 12.2171 9.6166 13.2964C9.6166 13.4856 9.44968 14.6856 9.43063 14.7663C9.43063 14.7663 9.53965 15.7548 9.64225 16.3197C9.67174 16.6014 9.7935 16.8654 9.98854 17.0707C7.28653 17.0707 6.74625 18.4334 4.19138 16.3646C4.10588 16.2318 4.05215 16.0811 4.03435 15.9241C4.01655 15.7671 4.03518 15.6081 4.08877 15.4596C4.08877 15.2413 4.21703 14.5481 3.81943 14.3876C3.81943 14.3876 2.13287 14.0667 1.62626 12.9434C1.32977 12.26 1.22331 11.5091 1.31813 10.7702C1.41296 10.0312 1.70554 9.33166 2.16493 8.74546C3.10289 7.6167 4.30287 6.73516 5.65991 6.17793C5.92512 6.07049 6.20979 6.01956 6.49577 6.0284C6.78174 6.03725 7.06274 6.10566 7.32082 6.22928C7.9783 6.60407 8.70465 6.84204 9.45628 6.92894C10.2579 6.92894 10.9825 6.49888 11.0082 6.25496C11.0338 6.01104 10.6298 5.96611 10.2066 5.93402C9.71269 6.0025 9.20966 5.9197 8.7637 5.69652C6.5973 4.77959 5.98055 4.84963 5.98055 4.75937C5.98055 4.67593 5.49959 3.79655 5.98055 3.34081C6.25697 2.98609 6.60992 2.69849 7.01303 2.49953C7.41613 2.30057 7.85895 2.19538 8.30839 2.19184C9.45628 2.27529 10.2322 2.88508 11.2454 2.51279C12.2587 2.14049 12.6114 1.49861 13.6502 1.36382C14.6891 1.22902 14.8238 1.1199 15.3047 1.73611C15.3047 1.73611 13.8939 3.01987 14.2659 4.14317C14.362 4.52499 14.5727 4.86815 14.8697 5.12639C15.1667 5.38462 15.5356 5.54552 15.9268 5.5874C16.0886 5.6369 16.261 5.64093 16.425 5.59905C16.5889 5.55716 16.7383 5.47098 16.8566 5.34991C17.1003 5.13167 17.1516 4.8364 16.94 4.78505C16.7284 4.7337 16.0294 4.5989 15.8434 4.00837C15.6574 3.41784 15.8434 2.62191 17.235 2.32664C18.6266 2.03137 19.3448 2.0057 20.2811 2.58981C21.2173 3.17393 20.9224 4.35499 21.9612 4.11749C23.0001 3.88 23.6221 3.47561 24.5263 3.9827C24.8102 4.13276 25.0564 4.34531 25.2463 4.60436C25.4363 4.86342 25.565 5.16222 25.6229 5.47828C25.8614 8.89259 21.5893 6.78729 21.5893 8.61067C21.6726 9.09208 22.4165 9.25255 22.4165 9.25255C22.4165 9.25255 21.5893 10.5363 21.9869 10.8316C22.3845 11.1268 23.1925 11.2039 23.1925 10.9086C23.199 10.5361 23.3134 10.1735 23.5217 9.86474C23.73 9.55599 24.0233 9.31435 24.366 9.16911C25.3792 8.77114 26.2899 8.4502 27.4121 9.00863C27.8899 9.21584 28.3152 9.52746 28.657 9.92065C28.9988 10.3138 29.2483 10.7786 29.3872 11.2809C29.6133 12.1424 29.8641 14.7663 26.8285 17.4686Z"
    fill="currentColor" />
</svg>