<svg width="31" height="24" viewBox="0 0 31 24" fill="none" xmlns="http://www.w3.org/2000/svg">
  <path
    d="M14.0537 0.0030265C14.9989 0.139575 15.8876 0.536974 16.6192 1.15146C16.6465 1.13906 18.7966 0.168837 20.4151 1.07432C22.0439 1.98578 22.2559 2.73057 22.2559 2.73057C22.2826 2.71998 25.0958 1.61149 26.2383 3.879C27.3862 6.15766 26.5586 7.22373 26.5586 7.22373L26.2383 7.54502C26.2776 7.54247 29.7692 7.32541 30.5918 10.5167C31.419 13.7002 30.3355 15.1891 29.5596 16.338C28.7837 17.4869 27.3409 18.6365 26.8086 19.2784C26.3359 19.8421 26.0711 20.5513 26.0586 21.2872C26.11 21.7687 26.5903 23.0519 26.4043 23.2638C26.1754 23.4692 25.884 23.5914 25.5772 23.6104C25.4271 23.596 25.2809 23.5528 25.1475 23.4825C25.162 23.5174 25.1692 23.5551 25.169 23.5929C25.1687 23.6305 25.1613 23.6677 25.1465 23.7022C25.1316 23.737 25.1093 23.7689 25.0821 23.795C25.0548 23.821 25.0225 23.8412 24.9873 23.8546C24.7245 23.9893 24.3464 24.06 24.2949 23.9317C24.2436 23.8034 23.5445 22.3272 22.961 22.3272C22.2007 22.3104 21.4493 22.1583 20.7422 21.878C20.0499 21.5856 19.8361 20.3231 19.8321 20.2989C19.8321 20.2989 16.2794 20.562 14.3555 20.0294C12.9711 19.5797 11.6707 18.9025 10.5078 18.0265C9.13852 18.4655 7.69348 18.6183 6.26272 18.4757C4.33902 18.1548 2.1967 17.4359 2.626 15.4015C1.9568 15.2857 1.344 14.9533 0.880882 14.4562C0.417771 13.959 0.130078 13.3239 0.0615456 12.6476C-0.188535 10.2214 0.317896 8.50787 1.68362 7.41025C2.67368 6.63367 3.71733 5.92746 4.80666 5.29795C4.80012 5.28732 3.77179 3.61297 4.99221 2.49326C6.01673 1.5506 7.32017 0.96643 8.7051 0.830175C9.43752 0.7648 10.1716 0.945648 10.7901 1.34385C10.8189 1.32236 12.6983 -0.0733878 14.0537 0.0030265ZM20.8389 20.3048C20.4926 20.6514 20.7294 21.0879 21.7744 21.5372C22.8197 21.9865 23.2435 21.5058 23.3526 21.4288V21.4542C23.4611 21.3705 23.0312 20.9469 22.3389 20.6261C21.8592 20.4396 21.3528 20.3308 20.8389 20.3048ZM15.3047 1.73545C14.8238 1.11925 14.6883 1.22858 13.6494 1.36338C12.6109 1.49826 12.258 2.13956 11.2451 2.51182C10.2319 2.8841 9.45552 2.27495 8.30764 2.1915C7.85834 2.19509 7.4157 2.30022 7.01272 2.49912C6.60976 2.69801 6.25686 2.98539 5.98049 3.33994C5.49954 3.79567 5.98049 4.67544 5.98049 4.75889C5.98065 4.84226 6.56425 4.70713 6.78225 4.70713C6.99982 4.70621 7.0323 4.08513 7.29494 3.84775C7.55787 3.61026 7.88492 3.2375 8.25686 3.44932C8.62868 3.66113 8.35924 3.95654 7.98733 4.14267C7.61542 4.32884 7.61526 4.9708 7.61526 4.9708C7.95585 5.27355 8.34415 5.51881 8.76369 5.69639C9.20951 5.91937 9.71241 6.00212 10.2061 5.93369C10.6291 5.96577 11.033 6.01046 11.0078 6.254C10.9822 6.49789 10.2576 6.92873 9.45608 6.92881C8.70446 6.84192 7.97781 6.60339 7.32033 6.22861C7.06229 6.10503 6.78106 6.03628 6.49514 6.02744C6.20926 6.01864 5.92433 6.07042 5.6592 6.17783C4.30237 6.73505 3.1029 7.6166 2.16506 8.74521C1.70567 9.3314 1.41223 10.0307 1.3174 10.7696C1.22261 11.5085 1.3296 12.2592 1.626 12.9425C2.1326 14.0658 3.81936 14.3868 3.81936 14.3868C4.21673 14.5474 4.08889 15.2409 4.08889 15.4591C4.03535 15.6075 4.01649 15.7661 4.0342 15.9229C4.052 16.0799 4.10593 16.2316 4.19143 16.3644C4.6141 16.7065 5.12119 16.9282 5.6592 17.006C5.90288 17.006 4.7232 15.1313 4.6719 14.9708C4.62096 14.8101 4.85787 14.3298 5.12698 14.4386C5.39631 14.5477 6.27551 17.0253 6.41018 17.2179C6.54554 17.41 7.37227 17.3263 7.50686 17.3263C7.64031 17.3256 7.32022 17.031 7.00002 16.4991C6.63667 15.7856 6.3341 15.0419 6.09573 14.2774C6.07038 14.117 6.21761 13.8158 6.47365 13.9308C6.73016 14.0463 8.09654 17.0447 8.25686 17.2052C8.4174 17.3652 8.87227 17.2052 8.94924 17.2052C9.02619 17.2052 8.59641 16.8772 8.38479 16.1583C8.17301 15.4392 7.21156 13.5909 7.10256 13.3214C7.086 13.267 7.08001 13.2099 7.08596 13.1534C7.09191 13.0969 7.10922 13.042 7.13674 12.9923C7.16419 12.9427 7.20156 12.8993 7.24612 12.8644C7.29084 12.8294 7.34266 12.8039 7.39748 12.7892C7.53212 12.7892 7.69298 12.898 8.33401 14.6368C8.62236 15.5139 9.05559 16.3371 9.61623 17.0704H9.9883C9.79335 16.8653 9.67119 16.601 9.64162 16.3194C9.53961 15.7578 9.43192 14.7769 9.43069 14.7657C9.43192 14.7605 9.51258 14.4116 9.37893 14.3097C9.24361 14.2055 7.93073 11.6155 7.90432 11.505C7.87867 11.3959 8.19934 11.0753 8.33401 11.0753C8.81566 11.9027 9.24391 12.7605 9.61623 13.6427V13.296C9.71825 12.8585 9.8536 12.4289 10.0205 12.0118C10.0194 11.8752 8.92385 9.9511 8.92385 9.87412C8.96326 9.77916 9.02977 9.69776 9.11526 9.64072C9.20081 9.58365 9.30151 9.55364 9.40432 9.55381C9.64159 9.57948 10.2061 11.5821 10.2061 11.5821C10.4451 11.2334 10.7321 10.9199 11.0586 10.6515C11.6737 10.089 12.4334 9.70889 13.252 9.55381C13.444 9.5297 13.6386 9.57552 13.7998 9.68271C13.961 9.78991 14.0786 9.9513 14.1309 10.1378C14.1565 10.3301 13.9963 10.2727 13.8106 10.2726C13.1001 10.3845 12.434 10.6912 11.8867 11.1583C11.4027 11.7231 11.0464 12.3867 10.8438 13.1026C10.6412 13.8185 10.5967 14.5699 10.7129 15.3048C11.1426 16.9351 12.9318 18.2763 14.9903 18.8604C17.0486 19.4445 20.1775 18.9063 21.5371 18.964C22.8966 19.0217 24.4746 20.3819 24.4746 20.3819C24.488 20.3624 25.5465 18.808 25.7569 18.5655C25.9685 18.3216 24.423 16.5883 24.2627 16.2931C24.1027 15.9981 24.4173 16.0362 24.6865 15.9464C24.9569 15.8594 26.1543 17.9239 26.1543 17.9239L26.8281 17.4679C26.9023 17.413 25.4425 15.3752 25.3848 15.2726C25.3276 15.1693 25.5649 14.6823 25.834 14.7657C26.1035 14.8495 27.1234 16.8519 27.335 16.961C27.5468 17.0689 28.0266 16.3707 28.0781 16.2677C27.5768 15.2284 27.0162 14.2187 26.3985 13.2442C26.1869 12.9233 26.6102 12.7374 26.7705 12.7374C26.9324 12.7414 28.2966 15.5939 28.4824 15.7286C28.6684 15.863 28.9628 14.8429 28.9629 14.631C28.9629 14.4191 29.035 14.6648 28.958 14.4786C28.8799 14.2939 27.951 14.9493 28.9629 13.5743C29.1209 13.549 29.3043 14.0822 29.3096 14.0978C29.3993 13.8114 29.4612 13.5171 29.4951 13.2188C29.5891 12.572 29.5526 11.9126 29.3867 11.2804C29.2478 10.7781 28.998 10.3132 28.6563 9.92002C28.3145 9.52687 27.8889 9.2151 27.4112 9.00791C26.2891 8.44969 25.3784 8.77014 24.3653 9.16807C24.0225 9.31329 23.7298 9.55564 23.5215 9.86435C23.3132 10.1731 23.198 10.5358 23.1914 10.9083C23.1909 11.2032 22.3838 11.1263 21.9864 10.8312C21.5897 10.5366 22.4123 9.25788 22.416 9.25205C22.416 9.25205 21.6726 9.09157 21.5889 8.61045C21.5066 8.13515 22.343 7.79097 22.3643 7.78232C22.1162 7.21595 21.9026 6.63498 21.7237 6.04307C21.7237 5.82483 22.0376 5.67043 22.2813 5.72178C22.525 5.77313 23.0063 7.53186 23.0576 7.7501C23.1091 7.96793 23.4867 7.72414 23.6983 7.69834C23.9099 7.67266 22.9742 5.71482 22.9229 5.63779C22.8723 5.56059 23.2949 5.31748 23.4551 5.31748C23.8704 6.00118 24.2282 6.71825 24.5254 7.46103C24.7537 7.34072 24.969 7.19687 25.167 7.03135C25.3529 6.84533 24.5205 5.40907 24.417 5.21494C24.3145 5.02253 24.7303 4.91921 24.9229 4.91904C25.1153 4.91904 25.6221 6.20322 25.6221 6.20322C25.639 5.96174 25.639 5.71911 25.6221 5.47764C25.5642 5.16165 25.436 4.86261 25.2461 4.60361C25.0562 4.34456 24.8093 4.13258 24.5254 3.98252C23.6213 3.47557 22.9996 3.87979 21.961 4.11728C20.9221 4.35478 21.2166 3.17307 20.2803 2.58896C19.3442 2.00507 18.6258 2.03104 17.2344 2.32627C15.8429 2.62155 15.6568 3.4174 15.8428 4.00791C16.0287 4.59835 16.7278 4.73291 16.9395 4.78428C17.1511 4.83563 17.1001 5.13147 16.8565 5.34971C16.7382 5.4707 16.5887 5.55682 16.4248 5.59873C16.261 5.64057 16.0885 5.63637 15.9268 5.58701C15.5357 5.54513 15.1661 5.38427 14.8692 5.12607C14.5722 4.86786 14.3618 4.52447 14.2656 4.14267C13.8937 3.01939 15.3047 1.73545 15.3047 1.73545ZM16.0225 15.6134C16.2918 15.6649 16.9647 16.6518 17.3047 16.8321C17.6446 17.0119 18.0874 16.6725 18.2862 16.756C18.4911 16.8331 18.2281 17.1407 17.9268 17.2755C17.6959 17.3745 17.4416 17.4068 17.1934 17.3683C16.9451 17.3297 16.7125 17.2212 16.5225 17.0567C15.9006 16.5947 15.4834 16.152 15.4834 16.0108C15.4861 15.9467 15.5032 15.8839 15.5332 15.8272C15.5634 15.7705 15.6065 15.7209 15.6582 15.6827C15.7098 15.6447 15.7692 15.6186 15.8321 15.6065C15.8951 15.5945 15.9604 15.597 16.0225 15.6134ZM15.8369 15.3839C14.5837 14.7267 17.6569 13.6604 19.2852 14.3253C21.0951 15.0645 20.3438 16.1104 20.3438 16.1104C20.344 16.1381 20.3532 17.6273 19.8916 17.0147C19.6019 16.6301 19.7373 16.3841 19.7373 15.6827C19.7369 14.7251 17.6466 14.4792 15.8369 15.3839ZM12.9961 11.4981C13.0173 11.4959 13.7564 11.4216 13.6182 11.8575C13.2817 12.7101 13.0867 13.6128 13.041 14.5284C13.0988 15.4076 13.3226 15.6131 13.2393 15.7735C13.1554 15.9338 12.1175 15.7282 12.0342 15.587C11.8821 14.1544 12.2213 12.7122 12.9961 11.4981ZM26.0381 10.045C27.2693 9.78827 26.9779 10.0972 27.8828 10.6749C28.7873 11.2531 28.7871 13.421 28.7871 13.421C28.7869 13.4364 28.7714 13.873 27.8828 13.8731C26.9779 13.8731 28.0553 12.6745 27.6924 12.0636C27.4575 11.6685 27.2607 11.4367 26.8399 11.252C26.3423 11.0339 26.1569 11.9794 25.6201 12.0636C25.1422 12.1384 22.9982 12.5467 24.2627 11.6104C25.5269 10.6744 24.8072 10.3018 26.0381 10.045ZM4.40237 9.14951C4.63321 9.07249 5.34507 9.39291 4.76174 9.77158C4.19558 10.0471 3.73231 10.4975 3.44045 11.0558C3.32505 11.3396 3.32501 11.6576 3.44045 11.9415C3.43416 12.019 3.40981 12.094 3.36916 12.1603C3.3286 12.2263 3.27304 12.2818 3.20705 12.3224C3.14088 12.363 3.06568 12.3874 2.9883 12.3937C2.91086 12.3999 2.83264 12.388 2.76076 12.3585C2.2994 12.2172 2.25429 11.6591 2.376 11.0753C2.56359 10.6323 2.84089 10.2327 3.18948 9.90146C3.53802 9.57025 3.95075 9.31405 4.40237 9.14951ZM18.0313 7.93662C19.2624 7.67988 18.9702 7.9879 19.875 8.56553C20.78 9.14321 20.7803 11.3116 20.7803 11.3116C20.7801 11.3231 20.7682 11.7638 19.875 11.7638C18.9708 11.7634 20.0486 10.565 19.6856 9.9542C19.4507 9.55912 19.2539 9.32735 18.833 9.14267C18.3354 8.92435 17.4158 9.05858 16.8789 9.14267C16.4003 9.21776 13.3528 10.0788 14.6172 9.14267C15.8815 8.20681 16.8003 8.19331 18.0313 7.93662ZM10.4072 5.00205C9.15395 4.34487 11.3396 2.97961 12.9678 3.64463C14.7776 4.38389 14.4795 5.88193 14.4795 5.88193C14.4749 5.89316 14.0377 6.94902 13.5742 6.33408C13.2843 5.94933 13.4199 5.70361 13.4199 5.00205C13.4199 4.04432 12.2169 4.09729 10.4072 5.00205Z"
    fill="currentColor" />
</svg>