<svg width="56" height="24" viewBox="0 0 56 24" fill="none" xmlns="http://www.w3.org/2000/svg">
  <path
    d="M12 0C18.25 0 25 6.05402 28 9.08602C31 6.05402 37.75 0 44 0C51.5139 0 56 4.48605 56 12C56 19.5139 51.5139 24 44 24C37.75 24 31 17.946 28 14.914C25 17.946 18.25 24 12 24C4.48594 24 -1.33492e-06 19.5139 -1.33492e-06 12C-1.33492e-06 4.48605 4.48606 0 12 0ZM44.0001 21.4C49.3081 21.4 53.4002 17.308 53.4002 12C53.4002 6.69199 49.3081 2.59996 44.0001 2.59996C39.6001 2.59996 32.3601 8.95793 29.3441 12C32.354 15.0461 39.5821 21.4 44.0001 21.4ZM12 21.4C16.4001 21.4 23.64 15.0421 26.6561 12C23.656 8.95605 16.418 2.59996 12 2.59996C6.692 2.59996 2.59996 6.69199 2.59996 12C2.59996 17.308 6.692 21.4 12 21.4Z"
    fill="currentColor" />
</svg>