<svg width="11" height="24" viewBox="0 0 11 24" fill="none" xmlns="http://www.w3.org/2000/svg">
  <path
    d="M10.6681 21.4095L10.3204 22.7809C9.2773 23.1772 8.44493 23.4769 7.82327 23.68C7.20162 23.8934 6.47989 24 5.65804 24C4.39368 24 3.40852 23.7055 2.70259 23.1162C2.00718 22.5169 1.65948 21.7601 1.65948 20.8457C1.65948 20.4902 1.68582 20.1296 1.7385 19.7638C1.79118 19.388 1.87547 18.9663 1.99138 18.4991L3.28736 14.0496C3.40326 13.6229 3.49808 13.2216 3.57184 12.8457C3.65613 12.4597 3.69828 12.1092 3.69828 11.7943C3.69828 11.2254 3.5771 10.8292 3.33478 10.6057C3.09243 10.3822 2.62883 10.2705 1.94397 10.2705C1.60681 10.2705 1.2591 10.3213 0.900862 10.4229C0.553161 10.5245 0.252874 10.621 0 10.7124L0.3477 9.34096C1.20115 9.00573 2.01772 8.72128 2.79742 8.48763C3.5771 8.24382 4.31466 8.12191 5.01005 8.12191C6.26389 8.12191 7.22798 8.41653 7.90231 9.00573C8.58717 9.58477 8.92959 10.3416 8.92959 11.2762C8.92959 11.4692 8.90325 11.8095 8.85057 12.2972C8.80843 12.7848 8.72414 13.2318 8.5977 13.6381L7.30172 18.0724C7.19636 18.428 7.10153 18.8343 7.01724 19.2914C6.93294 19.7486 6.89081 20.094 6.89081 20.3276C6.89081 20.9168 7.02778 21.3181 7.30172 21.5315C7.57567 21.7449 8.04981 21.8515 8.72414 21.8515C9.04022 21.8515 9.39847 21.8006 9.79884 21.6991C10.1992 21.5874 10.489 21.4908 10.6681 21.4095ZM11 2.80381C11 3.57588 10.6944 4.23619 10.0833 4.78477C9.48276 5.32318 8.75575 5.59239 7.90231 5.59239C7.04885 5.59239 6.31657 5.32318 5.70546 4.78477C5.09434 4.23619 4.78879 3.57588 4.78879 2.80381C4.78879 2.03175 5.09434 1.37143 5.70546 0.822858C6.31657 0.274287 7.04885 0 7.90231 0C8.75575 0 9.48276 0.274287 10.0833 0.822858C10.6944 1.37143 11 2.03175 11 2.80381Z"
    fill="currentColor" />
</svg>