<svg width="31" height="24" viewBox="0 0 31 24" fill="none" xmlns="http://www.w3.org/2000/svg">
  <g fill="currentColor">
    <path
      d="M30.5928 10.5171C29.7656 7.30765 26.2386 7.54514 26.2386 7.54514L26.5592 7.2242C26.5592 7.2242 27.3864 6.15868 26.2386 3.88C25.0907 1.60131 22.2562 2.73103 22.2562 2.73103C22.2562 2.73103 22.0446 1.98644 20.4157 1.07497C18.7869 0.163498 16.6194 1.152 16.6194 1.152C15.8878 0.537495 14.9995 0.139575 14.0543 0.00302698C12.6883 -0.0739989 10.7901 1.34456 10.7901 1.34456C10.1717 0.946357 9.43841 0.765679 8.70598 0.831055C7.32087 0.967232 6.01762 1.55076 4.99298 2.49353C3.76813 3.61682 4.807 5.29855 4.807 5.29855C3.71766 5.92807 2.67406 6.63376 1.68398 7.41035C0.318051 8.50797 -0.188559 10.2218 0.0615394 12.6481C0.130059 13.3245 0.417898 13.9598 0.881088 14.4571C1.34428 14.9543 1.95735 15.2861 2.62666 15.4018C2.197 17.4365 4.33887 18.1555 6.26271 18.4764C7.69361 18.6191 9.13853 18.4661 10.508 18.0271C11.6709 18.9032 12.9712 19.58 14.3557 20.0298C16.2795 20.5625 19.8322 20.2993 19.8322 20.2993C19.8322 20.2993 20.0438 21.5831 20.7428 21.8784C21.4499 22.1587 22.2012 22.3108 22.9616 22.3277C23.5452 22.3277 24.2442 23.804 24.2955 23.9324C24.3468 24.0608 24.7251 23.9902 24.9881 23.8554C25.0234 23.8419 25.0556 23.8215 25.0829 23.7954C25.1102 23.7693 25.132 23.7379 25.1469 23.7032C25.1619 23.6685 25.1697 23.6311 25.1699 23.5933C25.1702 23.5555 25.1629 23.518 25.1484 23.4831C25.2819 23.5534 25.4278 23.597 25.578 23.6115C25.8849 23.5924 26.1764 23.4703 26.4053 23.2648C26.5913 23.053 26.1103 21.7693 26.059 21.2878C26.0715 20.5518 26.3364 19.8425 26.8093 19.2788C27.3416 18.6369 28.7844 17.4879 29.5604 16.3389C30.3363 15.19 31.4201 13.7008 30.5928 10.5171ZM23.3528 21.4291C23.2438 21.5061 22.8205 21.9875 21.7753 21.5382C20.73 21.0889 20.4927 20.6524 20.839 20.3058C21.3531 20.3318 21.8597 20.4401 22.3396 20.6267C23.0322 20.9476 23.4618 21.3713 23.3528 21.4547V21.4291ZM29.4963 13.2194C29.2613 15.2855 27.832 16.1753 25.7576 18.5663C25.546 18.8102 24.475 20.3828 24.475 20.3828C24.475 20.3828 22.8975 19.022 21.538 18.9642C20.1785 18.9065 17.049 19.4456 14.9905 18.8615C12.932 18.2774 11.1428 16.9359 10.7132 15.3055C10.5969 14.5705 10.6417 13.819 10.8443 13.103C11.047 12.387 11.4026 11.7237 11.8867 11.1589C12.4341 10.6917 13.0999 10.3851 13.8106 10.2731C13.9965 10.2731 14.1569 10.3309 14.1312 10.1383C14.0789 9.9518 13.9615 9.79022 13.8003 9.68303C13.639 9.57583 13.4447 9.53012 13.2527 9.55423C12.434 9.70929 11.6746 10.0893 11.0595 10.6519C9.65458 11.8066 9.84305 13.0198 9.43063 14.7663C9.43063 14.7663 9.53965 15.7548 9.64225 16.3197C9.67174 16.6014 9.7935 16.8654 9.98854 17.0707C8.20111 17.0707 6.44949 18.1931 4.19138 16.3646C4.10588 16.2318 4.05215 16.0811 4.03435 15.9241C4.01655 15.7671 4.03518 15.6081 4.08877 15.4596C4.08877 15.2413 4.21703 14.5481 3.81943 14.3876C3.81943 14.3876 2.13287 14.0667 1.62626 12.9434C1.32977 12.26 1.22331 11.5091 1.31813 10.7702C1.41296 10.0312 1.70554 9.33166 2.16493 8.74546C3.10289 7.6167 4.30287 6.73516 5.65991 6.17793C5.92512 6.07049 6.20979 6.01956 6.49577 6.0284C6.78174 6.03725 7.06274 6.10566 7.32082 6.22928C7.9783 6.60407 8.70465 6.84204 9.45628 6.92894C10.2579 6.92894 10.9825 6.49888 11.0082 6.25496C11.0338 6.01104 10.6298 5.96611 10.2066 5.93402C9.71269 6.0025 9.20966 5.9197 8.7637 5.69652C8.34415 5.51895 7.95641 5.27394 7.61581 4.9712C7.61581 4.9712 7.61581 4.32931 7.98775 4.14317C8.35969 3.95702 8.62903 3.66176 8.25709 3.44993C7.88515 3.23811 7.55809 3.61041 7.29517 3.8479C7.03224 4.0854 7.00018 4.70802 6.78214 4.70802C6.56411 4.70802 5.98055 4.84282 5.98055 4.75937C5.98055 4.67593 5.49959 3.79655 5.98055 3.34081C6.25697 2.98609 6.60992 2.69849 7.01303 2.49953C7.41613 2.30057 7.85895 2.19538 8.30839 2.19184C9.45628 2.27529 10.2322 2.88508 11.2454 2.51279C12.2587 2.14049 12.6114 1.49861 13.6502 1.36382C14.6891 1.22902 14.8238 1.1199 15.3047 1.73611C15.3047 1.73611 13.8939 3.01987 14.2659 4.14317C14.362 4.52499 14.5727 4.86815 14.8697 5.12639C15.1667 5.38462 15.5356 5.54552 15.9268 5.5874C16.0886 5.6369 16.261 5.64093 16.425 5.59905C16.5889 5.55716 16.7383 5.47098 16.8566 5.34991C17.1003 5.13167 17.1516 4.8364 16.94 4.78505C16.7284 4.7337 16.0294 4.5989 15.8434 4.00837C15.6574 3.41784 15.8434 2.62191 17.235 2.32664C18.6266 2.03137 19.3448 2.0057 20.2811 2.58981C21.2173 3.17393 20.9224 4.35499 21.9612 4.11749C23.0001 3.88 23.6221 3.47561 24.5263 3.9827C24.8102 4.13276 25.0564 4.34531 25.2463 4.60436C25.4363 4.86342 25.565 5.16222 25.6229 5.47828C25.6589 5.99364 25.5662 6.63268 25.1676 7.03164C23.1548 8.71451 23.5293 7.69226 22.3652 7.78264C22.3652 7.78264 21.5059 8.12926 21.5893 8.61067C21.6726 9.09208 22.4165 9.25255 22.4165 9.25255C22.4165 9.25255 21.5893 10.5363 21.9869 10.8316C22.3845 11.1268 23.1925 11.2039 23.1925 10.9086C23.199 10.5361 23.3134 10.1735 23.5217 9.86474C23.73 9.55599 24.0233 9.31435 24.366 9.16911C25.3792 8.77114 26.2899 8.4502 27.4121 9.00863C27.8899 9.21584 28.3152 9.52746 28.657 9.92065C28.9988 10.3138 29.2483 10.7786 29.3872 11.2809C29.5531 11.9132 29.5902 12.5724 29.4963 13.2194ZM12.9961 11.4991C12.2212 12.7133 11.882 14.1552 12.0342 15.5879C12.1176 15.7291 13.1565 15.9345 13.2398 15.7741C13.3232 15.6136 13.0987 15.4082 13.041 14.5288C13.0867 13.6132 13.2817 12.7112 13.6182 11.8586C13.7593 11.4157 12.9961 11.4991 12.9961 11.4991ZM4.403 9.14985C3.95125 9.31439 3.53819 9.57027 3.18955 9.90157C2.84092 10.2329 2.56417 10.6325 2.37656 11.0755C2.25471 11.6596 2.2996 12.218 2.76132 12.3593C2.8332 12.3888 2.91102 12.401 2.98847 12.3947C3.06592 12.3885 3.1408 12.3641 3.20704 12.3234C3.27328 12.2827 3.32899 12.227 3.36966 12.1608C3.41033 12.0945 3.4348 12.0196 3.44108 11.942C3.32559 11.6581 3.32559 11.3402 3.44108 11.0562C3.73294 10.4979 4.19595 10.048 4.76212 9.77247C5.34568 9.39376 4.63386 9.07282 4.403 9.14985Z"
    />
    <path
      d="M19.0044 14.932C17.3762 14.267 14.1312 16.0848 15.3845 16.742C17.1945 15.837 19.4569 15.3316 19.4569 16.2895C19.4569 16.9911 19.3209 17.2368 19.6109 17.6215C20.0768 18.2398 20.0634 16.7166 20.0634 16.7166C20.0634 16.7166 20.8144 15.6713 19.0044 14.932Z"
    />
    <path
      d="M23.9818 12.2171C25.2463 11.2809 24.5263 10.9086 25.7576 10.6519C26.9888 10.3951 26.6967 10.7032 27.6016 11.2809C28.5066 11.8586 28.5066 14.0271 28.5066 14.0271C28.5066 14.0271 28.5066 14.4796 27.6016 14.4796C26.6967 14.4796 27.7753 13.2805 27.4121 12.6696C27.1772 12.2745 26.9801 12.0433 26.5592 11.8586C26.0615 11.6402 25.8761 12.5855 25.3392 12.6696C24.8612 12.7445 22.7172 13.1533 23.9818 12.2171Z"
    />
  </g>
</svg>