<svg width="23" height="24" viewBox="0 0 23 24" fill="none" xmlns="http://www.w3.org/2000/svg">
  <path
    d="M7.51852 0.672013C9.81613 -0.155206 12.3194 -0.220305 14.6572 0.485489C16.9948 1.19124 19.043 2.63072 20.499 4.59096C21.955 6.55142 22.7412 8.92925 22.7412 11.3712H19.4218C19.4218 9.64217 18.8649 7.95857 17.834 6.57045C16.8031 5.18246 15.3524 4.16294 13.6972 3.66322C12.0421 3.16363 10.2702 3.21038 8.64352 3.79604C7.01684 4.3817 5.62183 5.47519 4.66501 6.91518C3.70823 8.35529 3.24056 10.0655 3.33102 11.7921C3.42155 13.5188 4.06486 15.1709 5.16696 16.5031C6.26907 17.8352 7.77112 18.7772 9.45016 19.1896C10.4352 19.4315 11.4505 19.4813 12.4433 19.3478L10.4795 16.672L19.5146 15.6779L15.8584 24.0001L14.5908 22.2736C12.6675 22.8416 10.6211 22.895 8.65915 22.4132C6.28764 21.8308 4.16596 20.5008 2.60934 18.6193C1.05272 16.7377 0.143444 14.4046 0.0155944 11.966C-0.1122 9.5274 0.548084 7.1122 1.89938 5.07826C3.25069 3.04435 5.22103 1.49924 7.51852 0.672013Z"
    fill="currentColor" />
</svg>