<svg width="21" height="24" viewBox="0 0 21 24" fill="none" xmlns="http://www.w3.org/2000/svg">
  <g fill="currentColor">
    <path
      d="M7.63636 1.875H13.3636C13.8908 1.875 14.3182 1.45528 14.3182 0.9375C14.3182 0.419719 13.8908 0 13.3636 0H7.63636C7.10917 0 6.68182 0.419719 6.68182 0.9375C6.68182 1.45528 7.10917 1.875 7.63636 1.875Z"
    />
    <path
      d="M13.2 9.71003L9.82523 13.0246C9.45243 13.3907 9.45238 13.9842 9.82518 14.3504C10.1981 14.7166 10.8024 14.7164 11.1751 14.3504L14.5499 11.0358C14.9227 10.6697 14.9228 10.0762 14.55 9.71003C14.1772 9.34394 13.5729 9.34398 13.2 9.71003Z"
    />
    <path
      d="M10.5 3.375C4.69698 3.375 0 7.98731 0 13.6875C0 19.3869 4.69612 24 10.5 24C16.3032 24 21 19.3876 21 13.6875C21 7.98811 16.3038 3.375 10.5 3.375ZM10.5 22.125C5.76297 22.125 1.90909 18.3399 1.90909 13.6875C1.90909 9.03506 5.76297 5.25 10.5 5.25C15.237 5.25 19.0909 9.03506 19.0909 13.6875C19.0909 18.3399 15.237 22.125 10.5 22.125Z"
    />
  </g>
</svg>