<svg width="24" height="24" viewBox="0 0 24 24" fill="none" xmlns="http://www.w3.org/2000/svg">
  <path
    d="M2.21813 5.07321C2.21853 5.06548 2.21938 5.05774 2.22069 5.05005C2.25068 5.0072 2.28756 4.97033 2.31846 4.92833C2.54254 4.62309 2.77977 4.3293 3.03013 4.04691C3.09871 3.96975 3.16734 3.89344 3.23762 3.81798C3.49541 3.54193 3.76581 3.27868 4.04877 3.02835C4.10107 2.98203 4.14995 2.93405 4.20226 2.88859C4.8996 2.29122 5.66317 1.77568 6.47793 1.35218C6.51054 1.33505 6.5448 1.32048 6.57826 1.3033C6.94111 1.11893 7.31314 0.953192 7.69297 0.806851C7.77873 0.776005 7.85676 0.746817 7.9382 0.721095C8.27602 0.59937 8.61901 0.492766 8.96714 0.401284C9.07003 0.373854 9.17292 0.345571 9.27753 0.321557C9.62052 0.24183 9.96347 0.180943 10.3142 0.131208C10.4205 0.115785 10.5251 0.0951874 10.6323 0.0823266C11.5356 -0.0274422 12.4489 -0.0274422 13.3522 0.0823266C13.4594 0.0951874 13.564 0.115785 13.6703 0.131208C14.021 0.180943 14.3674 0.24183 14.707 0.321557C14.8116 0.345571 14.9145 0.373854 15.0174 0.401284C15.3678 0.492716 15.7108 0.59932 16.0463 0.721095C16.1321 0.750233 16.2101 0.779421 16.2916 0.806851C16.6713 0.953192 17.0434 1.11888 17.4063 1.3033C17.4397 1.32043 17.474 1.335 17.5066 1.35218C18.3241 1.77523 19.0902 2.29071 19.79 2.88859C19.8423 2.934 19.8912 2.98203 19.9435 3.02835C20.2293 3.27984 20.4997 3.54308 20.7546 3.81798C20.8249 3.89344 20.8936 3.96975 20.9621 4.04691C21.2131 4.3287 21.4503 4.62248 21.6738 4.92828C21.7047 4.97028 21.7415 5.00715 21.7716 5.05C21.7755 5.05749 21.779 5.06523 21.7819 5.07316C24.7394 9.2176 24.7394 14.7824 21.7819 18.9268C21.779 18.9347 21.7755 18.9425 21.7716 18.9499C21.7416 18.9928 21.7047 19.0297 21.6738 19.0717C21.4503 19.3769 21.2131 19.6707 20.9621 19.9531C20.8936 20.0303 20.8249 20.1066 20.7546 20.182C20.4962 20.4581 20.2259 20.7213 19.9435 20.9717C19.8912 21.018 19.8423 21.0659 19.79 21.1114C19.0927 21.7088 18.3291 22.2243 17.5143 22.6478C17.4817 22.665 17.4475 22.6795 17.414 22.6967C17.0512 22.8811 16.6791 23.0468 16.2993 23.1931C16.2135 23.224 16.1355 23.2532 16.0541 23.2789C15.7162 23.4006 15.3732 23.5072 15.0251 23.5987C14.9222 23.6261 14.8193 23.6544 14.7147 23.6784C14.3717 23.7582 14.0288 23.8191 13.6781 23.8688C13.5717 23.8842 13.4671 23.9048 13.3599 23.9177C12.4566 24.0274 11.5434 24.0274 10.6401 23.9177C10.5329 23.9048 10.4283 23.8842 10.3219 23.8688C9.97126 23.8191 9.62484 23.7582 9.28526 23.6784C9.18066 23.6544 9.07777 23.6261 8.97487 23.5987C8.62389 23.5073 8.28089 23.4007 7.94593 23.2789C7.86017 23.2498 7.78215 23.2206 7.7007 23.1931C7.32093 23.0468 6.94885 22.8811 6.586 22.6967C6.55254 22.6796 6.51828 22.665 6.48567 22.6478C5.67091 22.2243 4.90734 21.7088 4.20999 21.1114C4.15769 21.0659 4.10881 21.018 4.05651 20.9717C3.77068 20.7207 3.50028 20.4575 3.24536 20.182C3.17507 20.1066 3.10644 20.0303 3.03786 19.9531C2.78691 19.6707 2.54967 19.3769 2.3262 19.0717C2.29535 19.0297 2.25847 18.9928 2.22843 18.9499C2.22451 18.9425 2.22104 18.9347 2.21813 18.9268C-0.739375 14.7824 -0.739375 9.21765 2.21813 5.07321ZM3.19648 6.69543C2.37644 8.04586 1.88126 9.56826 1.74998 11.1427H6.88609C6.949 10.1211 7.10977 9.10788 7.36625 8.117C5.91543 7.84532 4.51114 7.36655 3.19648 6.69543ZM9.8143 1.94804C9.76627 1.9592 9.72 1.97462 9.67197 1.98577C9.365 2.05781 9.06059 2.1401 8.76306 2.24299C8.71759 2.25841 8.67303 2.27645 8.62841 2.29272C8.33344 2.39561 8.0428 2.50965 7.75808 2.63569C7.70834 2.65885 7.65946 2.68457 7.60972 2.70773C7.33706 2.8375 7.07068 2.97781 6.81058 3.12872L6.63911 3.23246C6.39217 3.38338 6.15207 3.54484 5.91885 3.7169C5.85881 3.76061 5.79882 3.80266 5.73964 3.85064C5.51099 4.0221 5.29204 4.20586 5.08283 4.40194C5.02797 4.45168 4.97135 4.50056 4.91734 4.552C4.69784 4.76034 4.48863 4.98068 4.28626 5.20875C4.26053 5.23875 4.2331 5.26618 4.20738 5.29451C5.36841 5.84777 6.59836 6.24284 7.86439 6.46911C8.45091 4.85689 9.22568 3.31953 10.1726 1.88896C10.0536 1.91037 9.93177 1.92237 9.8143 1.94804ZM15.3946 11.1426C15.327 10.215 15.169 9.29607 14.923 8.39903C13.9515 8.51443 12.974 8.57165 11.9956 8.57049C11.0164 8.57019 10.038 8.51151 9.06571 8.39471C8.82013 9.29321 8.66303 10.2136 8.59671 11.1426H15.3946ZM8.59671 12.8575C8.66433 13.7851 8.82229 14.704 9.06832 15.6011C10.0398 15.4857 11.0173 15.4285 11.9957 15.4296C12.9749 15.4285 13.9532 15.4857 14.9256 15.6011C15.1709 14.704 15.328 13.7851 15.3947 12.8575H8.59671V12.8575ZM11.9957 2.27047C11.0199 3.65335 10.2173 5.15068 9.60595 6.72889C10.3997 6.81319 11.1974 6.85554 11.9957 6.85579C12.7931 6.85483 13.5899 6.81223 14.3828 6.72803C13.7707 5.15088 12.9691 3.65406 11.9957 2.27047ZM19.7041 5.20785C19.5026 4.97977 19.2926 4.75943 19.0731 4.5511C19.0191 4.49965 18.9624 4.45077 18.9076 4.40104C18.6961 4.20843 18.4771 4.02466 18.2508 3.84973C18.1916 3.80427 18.1316 3.76398 18.0716 3.716C17.8383 3.54454 17.5982 3.38303 17.3513 3.23156L17.1798 3.12782C16.9197 2.9758 16.6533 2.83544 16.3807 2.70683C16.3309 2.68367 16.2821 2.65795 16.2323 2.63479C15.9477 2.50618 15.657 2.39214 15.362 2.29182C15.3174 2.27554 15.2762 2.25751 15.2274 2.24208C14.9299 2.14261 14.6272 2.06032 14.3185 1.98487C14.2705 1.97372 14.2242 1.95829 14.1753 1.94799C14.0578 1.92227 13.936 1.91027 13.8169 1.88881C14.7642 3.31963 15.5392 4.85729 16.126 6.46981C17.392 6.24355 18.6221 5.84848 19.783 5.29521C19.7573 5.26527 19.7299 5.23784 19.7041 5.20785ZM20.7948 6.69543C19.4805 7.3665 18.0765 7.84526 16.6259 8.117C16.8821 9.10793 17.0426 10.1211 17.1052 11.1427H22.2413C22.11 9.56826 21.6148 8.04586 20.7948 6.69543ZM20.7948 17.3047C21.6149 15.9543 22.11 14.4319 22.2413 12.8575H17.1052C17.0423 13.8791 16.8815 14.8923 16.6251 15.8832C18.0759 16.1548 19.4802 16.6335 20.7948 17.3047ZM14.177 22.0521C14.225 22.0409 14.2713 22.0255 14.3193 22.0143C14.6263 21.9423 14.9307 21.86 15.2283 21.7571C15.2737 21.7417 15.3183 21.7237 15.3629 21.7074C15.6579 21.6045 15.9485 21.4905 16.2332 21.3644C16.283 21.3412 16.3319 21.3155 16.3816 21.2924C16.6542 21.1626 16.9206 21.0223 17.1807 20.8714L17.3522 20.7676C17.5991 20.6167 17.8392 20.4553 18.0725 20.2832C18.1325 20.2395 18.1925 20.1974 18.2517 20.1495C18.4803 19.978 18.6993 19.7942 18.9085 19.5982C18.9633 19.5484 19.02 19.4995 19.074 19.4481C19.2935 19.2398 19.5027 19.0194 19.7051 18.7913C19.7308 18.7614 19.7582 18.7339 19.7839 18.7056C18.6229 18.1523 17.3929 17.7573 16.1269 17.531C15.5404 19.1432 14.7656 20.6806 13.8187 22.1111C13.9378 22.0898 14.0595 22.0778 14.177 22.0521ZM11.9957 21.7297C12.9715 20.3468 13.774 18.8495 14.3854 17.2713C12.7974 17.1004 11.1957 17.1004 9.60771 17.2713L9.60857 17.2721C10.2206 18.8492 11.0222 20.346 11.9957 21.7297ZM4.28716 18.7922C4.48868 19.0203 4.69874 19.2407 4.91824 19.449C4.97225 19.5004 5.02888 19.5493 5.08374 19.5991C5.29525 19.7923 5.51421 19.976 5.74054 20.1504C5.79973 20.1958 5.85971 20.2404 5.91975 20.2841C6.15297 20.4556 6.39308 20.6171 6.64001 20.7685L6.81149 20.8723C7.07103 21.0237 7.33741 21.1641 7.61062 21.2933C7.66036 21.3164 7.70925 21.3422 7.75898 21.3653C8.04365 21.4939 8.33435 21.608 8.62931 21.7083C8.67388 21.7246 8.71508 21.7426 8.76391 21.758C9.06144 21.8575 9.36414 21.9398 9.67283 22.0152C9.72086 22.0264 9.76713 22.0418 9.81601 22.0521C9.93348 22.0778 10.0553 22.0898 10.1744 22.1113C9.22749 20.6807 8.45267 19.1434 7.8662 17.5311C6.60017 17.7574 5.37016 18.1525 4.20919 18.7057C4.23401 18.7348 4.26144 18.7623 4.28716 18.7922ZM3.19648 17.3047C4.51084 16.6336 5.91483 16.1549 7.3654 15.8832C7.10922 14.8922 6.94869 13.879 6.88609 12.8575H1.74998C1.88131 14.4318 2.37649 15.9542 3.19648 17.3047Z"
    fill="currentColor" />
</svg>