<svg xmlns="http://www.w3.org/2000/svg" xmlns:xlink="http://www.w3.org/1999/xlink" width="0" height="0" style="display:none;"><symbol viewBox="0 0 24 24" id="speed-math-settings">
  <g fill="currentColor">
    <path d="M22.7715 9.48068L21.087 9.1949C20.9115 8.62837 20.6859 8.08189 20.4102 7.56048L21.4028 6.17172C21.824 5.58011 21.7588 4.77293 21.2424 4.26154L19.7484 2.7675C19.4676 2.48674 19.0966 2.33131 18.7005 2.33131C18.3897 2.33131 18.0939 2.42657 17.8432 2.60706L16.4495 3.59975C15.908 3.31398 15.3415 3.07834 14.7549 2.90286L14.4741 1.23835C14.3538 0.521412 13.7371 0 13.0102 0H10.8995C10.1725 0 9.55582 0.521412 9.4355 1.23835L9.14471 2.94297C8.58319 3.11845 8.03672 3.34907 7.51531 3.62983L6.13658 2.63714C5.88591 2.45665 5.58509 2.3614 5.27425 2.3614C4.87818 2.3614 4.50217 2.51682 4.22642 2.79758L2.72737 4.29162C2.21599 4.80301 2.1458 5.61019 2.56694 6.2018L3.56965 7.61061C3.2939 8.13704 3.07331 8.68352 2.90284 9.25005L1.23835 9.53081C0.521409 9.65114 0 10.2678 0 10.9948V13.1055C0 13.8325 0.521409 14.4491 1.23835 14.5695L2.94295 14.8602C3.11843 15.4218 3.34905 15.9682 3.62981 16.4897L2.64214 17.8634C2.221 18.455 2.28618 19.2622 2.80257 19.7736L4.29661 21.2676C4.57737 21.5484 4.94837 21.7038 5.34444 21.7038C5.65528 21.7038 5.95108 21.6085 6.20176 21.428L7.61057 20.4253C8.11694 20.691 8.64837 20.9066 9.19485 21.0771L9.47561 22.7616C9.59593 23.4786 10.2126 24 10.9396 24H13.0553C13.7822 24 14.3989 23.4786 14.5192 22.7616L14.805 21.0771C15.3715 20.9016 15.918 20.676 16.4394 20.4003L17.8282 21.3929C18.0789 21.5734 18.3797 21.6687 18.6905 21.6687C19.0866 21.6687 19.4576 21.5133 19.7383 21.2325L21.2324 19.7385C21.7438 19.2271 21.814 18.4199 21.3928 17.8283L20.4001 16.4345C20.6759 15.9081 20.9065 15.3616 21.077 14.8001L22.7615 14.5193C23.4784 14.399 23.9999 13.7823 23.9999 13.0554V10.9446C24.0099 10.2177 23.4885 9.601 22.7715 9.48068ZM22.6562 13.0554C22.6562 13.1205 22.6111 13.1757 22.5459 13.1857L20.4402 13.5367C20.1745 13.5818 19.964 13.7773 19.8988 14.033C19.7083 14.77 19.4175 15.4769 19.0264 16.1337C18.8911 16.3643 18.9011 16.6501 19.0565 16.8707L20.2948 18.6154C20.3299 18.6656 20.3249 18.7408 20.2798 18.7859L18.7858 20.2799C18.7507 20.315 18.7156 20.32 18.6905 20.32C18.6604 20.32 18.6354 20.31 18.6153 20.295L16.8756 19.0566C16.66 18.9012 16.3692 18.8912 16.1386 19.0265C15.4818 19.4176 14.7749 19.7084 14.0379 19.8989C13.7772 19.9641 13.5817 20.1797 13.5416 20.4404L13.1856 22.5461C13.1756 22.6112 13.1205 22.6564 13.0553 22.6564H10.9446C10.8794 22.6564 10.8243 22.6112 10.8142 22.5461L10.4633 20.4404C10.4182 20.1746 10.2226 19.9641 9.96693 19.8989C9.25 19.7134 8.55813 19.4276 7.91138 19.0566C7.8061 18.9965 7.68577 18.9664 7.57046 18.9664C7.43509 18.9664 7.29471 19.0065 7.1794 19.0917L5.42466 20.3401C5.39959 20.3551 5.37452 20.3652 5.34946 20.3652C5.3294 20.3652 5.28929 20.3601 5.2542 20.325L3.76016 18.831C3.71504 18.7859 3.71003 18.7157 3.74512 18.6605L4.97845 16.9309C5.13387 16.7103 5.1439 16.4195 5.00854 16.1888C4.61748 15.5371 4.31667 14.8302 4.12615 14.0932C4.05596 13.8375 3.84539 13.6419 3.58469 13.5968L1.46396 13.2358C1.39878 13.2258 1.35366 13.1707 1.35366 13.1055V10.9948C1.35366 10.9296 1.39878 10.8745 1.46396 10.8644L3.55461 10.5135C3.82032 10.4684 4.03591 10.2728 4.10108 10.0121C4.28658 9.27512 4.57236 8.56319 4.9584 7.90641C5.09377 7.67579 5.07872 7.39001 4.9233 7.17443L3.67493 5.41968C3.63984 5.36954 3.64485 5.29434 3.68997 5.24922L5.18401 3.75517C5.2191 3.72008 5.2542 3.71506 5.27927 3.71506C5.30935 3.71506 5.33442 3.72509 5.35447 3.74013L7.08414 4.97347C7.30474 5.12889 7.59553 5.13892 7.82615 5.00355C8.47791 4.61249 9.18482 4.31168 9.92181 4.12116C10.1775 4.05097 10.373 3.8404 10.4182 3.5797L10.7791 1.45895C10.7892 1.39377 10.8443 1.34865 10.9095 1.34865H13.0202C13.0854 1.34865 13.1405 1.39377 13.1505 1.45895L13.5015 3.54961C13.5466 3.81533 13.7421 4.03092 14.0028 4.09609C14.7599 4.28661 15.4818 4.58241 16.1537 4.97848C16.3843 5.11385 16.67 5.10382 16.8906 4.9484L18.6203 3.70503C18.6454 3.68999 18.6705 3.67997 18.6955 3.67997C18.7156 3.67997 18.7557 3.68498 18.7908 3.72008L20.2848 5.21412C20.3299 5.25924 20.335 5.32943 20.2999 5.38458L19.0615 7.12429C18.9061 7.33988 18.8961 7.63067 19.0314 7.86129C19.4225 8.51807 19.7133 9.22498 19.9038 9.96198C19.969 10.2227 20.1845 10.4182 20.4453 10.4583L22.5509 10.8143C22.6161 10.8243 22.6612 10.8795 22.6612 10.9446V13.0554H22.6562Z"></path>
    <path d="M12.0024 6.81847C9.14471 6.81847 6.82344 9.13975 6.82344 11.9975C6.82344 14.8552 9.14471 17.1765 12.0024 17.1765C14.8602 17.1765 17.1814 14.8552 17.1814 11.9975C17.1814 9.13975 14.8602 6.81847 12.0024 6.81847ZM12.0024 15.8229C9.89173 15.8229 8.1771 14.1082 8.1771 11.9975C8.1771 9.88678 9.89173 8.17213 12.0024 8.17213C14.1131 8.17213 15.8278 9.88678 15.8278 11.9975C15.8278 14.1082 14.1131 15.8229 12.0024 15.8229Z"></path>
  </g>
</symbol></svg>