<svg xmlns="http://www.w3.org/2000/svg" xmlns:xlink="http://www.w3.org/1999/xlink" width="0" height="0" style="display:none;"><symbol viewBox="0 0 27 24" id="speed-math-back">
  <path fill-rule="evenodd" clip-rule="evenodd" d="M0.416217 13.1523C-0.138739 12.5159 -0.138739 11.4841 0.416217 10.8477L9.45974 0.477287C10.0147 -0.159096 10.9145 -0.159096 11.4694 0.477287C12.0244 1.11367 12.0244 2.14545 11.4694 2.78183L4.85178 10.3704H27V13.6296H4.85178L11.4694 21.2182C12.0244 21.8546 12.0244 22.8863 11.4694 23.5227C10.9145 24.1591 10.0147 24.1591 9.45974 23.5227L0.416217 13.1523Z" fill="currentColor"></path>
</symbol><symbol viewBox="0 0 31 24" id="speed-math-easy">
  <path d="M30.5928 10.5171C29.7656 7.30765 26.2386 7.54514 26.2386 7.54514L26.5592 7.2242C26.5592 7.2242 27.3864 6.15868 26.2386 3.88C25.0907 1.60131 22.2562 2.73103 22.2562 2.73103C22.2562 2.73103 22.0446 1.98644 20.4157 1.07497C18.7869 0.163498 16.6194 1.152 16.6194 1.152C15.8878 0.537495 14.9995 0.139575 14.0543 0.00302698C12.6883 -0.0739989 10.7901 1.34456 10.7901 1.34456C10.1717 0.946357 9.43841 0.765679 8.70598 0.831055C7.32087 0.967232 6.01762 1.55076 4.99298 2.49353C3.76813 3.61682 4.807 5.29855 4.807 5.29855C3.71766 5.92807 2.67406 6.63376 1.68398 7.41035C0.318051 8.50797 -0.188559 10.2218 0.0615394 12.6481C0.130059 13.3245 0.417898 13.9598 0.881088 14.4571C1.34428 14.9543 1.95735 15.2861 2.62666 15.4018C2.197 17.4365 4.33887 18.1555 6.26271 18.4764C7.69361 18.6191 9.13853 18.4661 10.508 18.0271C11.6709 18.9032 12.9712 19.58 14.3557 20.0298C16.2795 20.5625 19.8322 20.2993 19.8322 20.2993C19.8322 20.2993 20.0438 21.5831 20.7428 21.8784C21.4499 22.1587 22.2012 22.3108 22.9616 22.3277C23.5452 22.3277 24.2442 23.804 24.2955 23.9324C24.3468 24.0608 24.7251 23.9902 24.9881 23.8554C25.0234 23.8419 25.0556 23.8215 25.0829 23.7954C25.1102 23.7693 25.132 23.7379 25.1469 23.7032C25.1619 23.6685 25.1697 23.6311 25.1699 23.5933C25.1702 23.5555 25.1629 23.518 25.1484 23.4831C25.2819 23.5534 25.4278 23.597 25.578 23.6115C25.8849 23.5924 26.1764 23.4703 26.4053 23.2648C26.5913 23.053 26.1103 21.7693 26.059 21.2878C26.0715 20.5518 26.3364 19.8425 26.8093 19.2788C27.3416 18.6369 28.7844 17.4879 29.5604 16.3389C30.3363 15.19 31.4201 13.7008 30.5928 10.5171ZM23.3528 21.4291C23.2438 21.5061 22.8205 21.9875 21.7753 21.5382C20.73 21.0889 20.4927 20.6524 20.839 20.3058C21.3531 20.3318 21.8597 20.4401 22.3396 20.6267C23.0322 20.9476 23.4618 21.3713 23.3528 21.4547V21.4291ZM26.8285 17.4686C25.9916 18.0351 26.3542 17.8786 25.7576 18.5663C25.546 18.8102 24.475 20.3828 24.475 20.3828C24.475 20.3828 22.8975 19.022 21.538 18.9642C20.1785 18.9065 17.049 19.4456 14.9905 18.8615C12.932 18.2774 11.1428 16.9359 10.7132 15.3055C10.5969 14.5705 10.6417 13.819 10.8443 13.103C11.047 12.387 11.4026 11.7237 11.8867 11.1589C12.4341 10.6917 13.0999 10.3851 13.8106 10.2731C13.9965 10.2731 14.1569 10.3309 14.1312 10.1383C14.0789 9.9518 13.9615 9.79022 13.8003 9.68303C13.639 9.57583 13.4447 9.53012 13.2527 9.55423C12.434 9.70929 11.6746 10.0893 11.0595 10.6519C9.79601 11.6904 9.95469 12.2171 9.6166 13.2964C9.6166 13.4856 9.44968 14.6856 9.43063 14.7663C9.43063 14.7663 9.53965 15.7548 9.64225 16.3197C9.67174 16.6014 9.7935 16.8654 9.98854 17.0707C7.28653 17.0707 6.74625 18.4334 4.19138 16.3646C4.10588 16.2318 4.05215 16.0811 4.03435 15.9241C4.01655 15.7671 4.03518 15.6081 4.08877 15.4596C4.08877 15.2413 4.21703 14.5481 3.81943 14.3876C3.81943 14.3876 2.13287 14.0667 1.62626 12.9434C1.32977 12.26 1.22331 11.5091 1.31813 10.7702C1.41296 10.0312 1.70554 9.33166 2.16493 8.74546C3.10289 7.6167 4.30287 6.73516 5.65991 6.17793C5.92512 6.07049 6.20979 6.01956 6.49577 6.0284C6.78174 6.03725 7.06274 6.10566 7.32082 6.22928C7.9783 6.60407 8.70465 6.84204 9.45628 6.92894C10.2579 6.92894 10.9825 6.49888 11.0082 6.25496C11.0338 6.01104 10.6298 5.96611 10.2066 5.93402C9.71269 6.0025 9.20966 5.9197 8.7637 5.69652C6.5973 4.77959 5.98055 4.84963 5.98055 4.75937C5.98055 4.67593 5.49959 3.79655 5.98055 3.34081C6.25697 2.98609 6.60992 2.69849 7.01303 2.49953C7.41613 2.30057 7.85895 2.19538 8.30839 2.19184C9.45628 2.27529 10.2322 2.88508 11.2454 2.51279C12.2587 2.14049 12.6114 1.49861 13.6502 1.36382C14.6891 1.22902 14.8238 1.1199 15.3047 1.73611C15.3047 1.73611 13.8939 3.01987 14.2659 4.14317C14.362 4.52499 14.5727 4.86815 14.8697 5.12639C15.1667 5.38462 15.5356 5.54552 15.9268 5.5874C16.0886 5.6369 16.261 5.64093 16.425 5.59905C16.5889 5.55716 16.7383 5.47098 16.8566 5.34991C17.1003 5.13167 17.1516 4.8364 16.94 4.78505C16.7284 4.7337 16.0294 4.5989 15.8434 4.00837C15.6574 3.41784 15.8434 2.62191 17.235 2.32664C18.6266 2.03137 19.3448 2.0057 20.2811 2.58981C21.2173 3.17393 20.9224 4.35499 21.9612 4.11749C23.0001 3.88 23.6221 3.47561 24.5263 3.9827C24.8102 4.13276 25.0564 4.34531 25.2463 4.60436C25.4363 4.86342 25.565 5.16222 25.6229 5.47828C25.8614 8.89259 21.5893 6.78729 21.5893 8.61067C21.6726 9.09208 22.4165 9.25255 22.4165 9.25255C22.4165 9.25255 21.5893 10.5363 21.9869 10.8316C22.3845 11.1268 23.1925 11.2039 23.1925 10.9086C23.199 10.5361 23.3134 10.1735 23.5217 9.86474C23.73 9.55599 24.0233 9.31435 24.366 9.16911C25.3792 8.77114 26.2899 8.4502 27.4121 9.00863C27.8899 9.21584 28.3152 9.52746 28.657 9.92065C28.9988 10.3138 29.2483 10.7786 29.3872 11.2809C29.6133 12.1424 29.8641 14.7663 26.8285 17.4686Z" fill="currentColor"></path>
</symbol><symbol viewBox="0 0 31 24" id="speed-math-hard">
  <path d="M14.0537 0.0030265C14.9989 0.139575 15.8876 0.536974 16.6192 1.15146C16.6465 1.13906 18.7966 0.168837 20.4151 1.07432C22.0439 1.98578 22.2559 2.73057 22.2559 2.73057C22.2826 2.71998 25.0958 1.61149 26.2383 3.879C27.3862 6.15766 26.5586 7.22373 26.5586 7.22373L26.2383 7.54502C26.2776 7.54247 29.7692 7.32541 30.5918 10.5167C31.419 13.7002 30.3355 15.1891 29.5596 16.338C28.7837 17.4869 27.3409 18.6365 26.8086 19.2784C26.3359 19.8421 26.0711 20.5513 26.0586 21.2872C26.11 21.7687 26.5903 23.0519 26.4043 23.2638C26.1754 23.4692 25.884 23.5914 25.5772 23.6104C25.4271 23.596 25.2809 23.5528 25.1475 23.4825C25.162 23.5174 25.1692 23.5551 25.169 23.5929C25.1687 23.6305 25.1613 23.6677 25.1465 23.7022C25.1316 23.737 25.1093 23.7689 25.0821 23.795C25.0548 23.821 25.0225 23.8412 24.9873 23.8546C24.7245 23.9893 24.3464 24.06 24.2949 23.9317C24.2436 23.8034 23.5445 22.3272 22.961 22.3272C22.2007 22.3104 21.4493 22.1583 20.7422 21.878C20.0499 21.5856 19.8361 20.3231 19.8321 20.2989C19.8321 20.2989 16.2794 20.562 14.3555 20.0294C12.9711 19.5797 11.6707 18.9025 10.5078 18.0265C9.13852 18.4655 7.69348 18.6183 6.26272 18.4757C4.33902 18.1548 2.1967 17.4359 2.626 15.4015C1.9568 15.2857 1.344 14.9533 0.880882 14.4562C0.417771 13.959 0.130078 13.3239 0.0615456 12.6476C-0.188535 10.2214 0.317896 8.50787 1.68362 7.41025C2.67368 6.63367 3.71733 5.92746 4.80666 5.29795C4.80012 5.28732 3.77179 3.61297 4.99221 2.49326C6.01673 1.5506 7.32017 0.96643 8.7051 0.830175C9.43752 0.7648 10.1716 0.945648 10.7901 1.34385C10.8189 1.32236 12.6983 -0.0733878 14.0537 0.0030265ZM20.8389 20.3048C20.4926 20.6514 20.7294 21.0879 21.7744 21.5372C22.8197 21.9865 23.2435 21.5058 23.3526 21.4288V21.4542C23.4611 21.3705 23.0312 20.9469 22.3389 20.6261C21.8592 20.4396 21.3528 20.3308 20.8389 20.3048ZM15.3047 1.73545C14.8238 1.11925 14.6883 1.22858 13.6494 1.36338C12.6109 1.49826 12.258 2.13956 11.2451 2.51182C10.2319 2.8841 9.45552 2.27495 8.30764 2.1915C7.85834 2.19509 7.4157 2.30022 7.01272 2.49912C6.60976 2.69801 6.25686 2.98539 5.98049 3.33994C5.49954 3.79567 5.98049 4.67544 5.98049 4.75889C5.98065 4.84226 6.56425 4.70713 6.78225 4.70713C6.99982 4.70621 7.0323 4.08513 7.29494 3.84775C7.55787 3.61026 7.88492 3.2375 8.25686 3.44932C8.62868 3.66113 8.35924 3.95654 7.98733 4.14267C7.61542 4.32884 7.61526 4.9708 7.61526 4.9708C7.95585 5.27355 8.34415 5.51881 8.76369 5.69639C9.20951 5.91937 9.71241 6.00212 10.2061 5.93369C10.6291 5.96577 11.033 6.01046 11.0078 6.254C10.9822 6.49789 10.2576 6.92873 9.45608 6.92881C8.70446 6.84192 7.97781 6.60339 7.32033 6.22861C7.06229 6.10503 6.78106 6.03628 6.49514 6.02744C6.20926 6.01864 5.92433 6.07042 5.6592 6.17783C4.30237 6.73505 3.1029 7.6166 2.16506 8.74521C1.70567 9.3314 1.41223 10.0307 1.3174 10.7696C1.22261 11.5085 1.3296 12.2592 1.626 12.9425C2.1326 14.0658 3.81936 14.3868 3.81936 14.3868C4.21673 14.5474 4.08889 15.2409 4.08889 15.4591C4.03535 15.6075 4.01649 15.7661 4.0342 15.9229C4.052 16.0799 4.10593 16.2316 4.19143 16.3644C4.6141 16.7065 5.12119 16.9282 5.6592 17.006C5.90288 17.006 4.7232 15.1313 4.6719 14.9708C4.62096 14.8101 4.85787 14.3298 5.12698 14.4386C5.39631 14.5477 6.27551 17.0253 6.41018 17.2179C6.54554 17.41 7.37227 17.3263 7.50686 17.3263C7.64031 17.3256 7.32022 17.031 7.00002 16.4991C6.63667 15.7856 6.3341 15.0419 6.09573 14.2774C6.07038 14.117 6.21761 13.8158 6.47365 13.9308C6.73016 14.0463 8.09654 17.0447 8.25686 17.2052C8.4174 17.3652 8.87227 17.2052 8.94924 17.2052C9.02619 17.2052 8.59641 16.8772 8.38479 16.1583C8.17301 15.4392 7.21156 13.5909 7.10256 13.3214C7.086 13.267 7.08001 13.2099 7.08596 13.1534C7.09191 13.0969 7.10922 13.042 7.13674 12.9923C7.16419 12.9427 7.20156 12.8993 7.24612 12.8644C7.29084 12.8294 7.34266 12.8039 7.39748 12.7892C7.53212 12.7892 7.69298 12.898 8.33401 14.6368C8.62236 15.5139 9.05559 16.3371 9.61623 17.0704H9.9883C9.79335 16.8653 9.67119 16.601 9.64162 16.3194C9.53961 15.7578 9.43192 14.7769 9.43069 14.7657C9.43192 14.7605 9.51258 14.4116 9.37893 14.3097C9.24361 14.2055 7.93073 11.6155 7.90432 11.505C7.87867 11.3959 8.19934 11.0753 8.33401 11.0753C8.81566 11.9027 9.24391 12.7605 9.61623 13.6427V13.296C9.71825 12.8585 9.8536 12.4289 10.0205 12.0118C10.0194 11.8752 8.92385 9.9511 8.92385 9.87412C8.96326 9.77916 9.02977 9.69776 9.11526 9.64072C9.20081 9.58365 9.30151 9.55364 9.40432 9.55381C9.64159 9.57948 10.2061 11.5821 10.2061 11.5821C10.4451 11.2334 10.7321 10.9199 11.0586 10.6515C11.6737 10.089 12.4334 9.70889 13.252 9.55381C13.444 9.5297 13.6386 9.57552 13.7998 9.68271C13.961 9.78991 14.0786 9.9513 14.1309 10.1378C14.1565 10.3301 13.9963 10.2727 13.8106 10.2726C13.1001 10.3845 12.434 10.6912 11.8867 11.1583C11.4027 11.7231 11.0464 12.3867 10.8438 13.1026C10.6412 13.8185 10.5967 14.5699 10.7129 15.3048C11.1426 16.9351 12.9318 18.2763 14.9903 18.8604C17.0486 19.4445 20.1775 18.9063 21.5371 18.964C22.8966 19.0217 24.4746 20.3819 24.4746 20.3819C24.488 20.3624 25.5465 18.808 25.7569 18.5655C25.9685 18.3216 24.423 16.5883 24.2627 16.2931C24.1027 15.9981 24.4173 16.0362 24.6865 15.9464C24.9569 15.8594 26.1543 17.9239 26.1543 17.9239L26.8281 17.4679C26.9023 17.413 25.4425 15.3752 25.3848 15.2726C25.3276 15.1693 25.5649 14.6823 25.834 14.7657C26.1035 14.8495 27.1234 16.8519 27.335 16.961C27.5468 17.0689 28.0266 16.3707 28.0781 16.2677C27.5768 15.2284 27.0162 14.2187 26.3985 13.2442C26.1869 12.9233 26.6102 12.7374 26.7705 12.7374C26.9324 12.7414 28.2966 15.5939 28.4824 15.7286C28.6684 15.863 28.9628 14.8429 28.9629 14.631C28.9629 14.4191 29.035 14.6648 28.958 14.4786C28.8799 14.2939 27.951 14.9493 28.9629 13.5743C29.1209 13.549 29.3043 14.0822 29.3096 14.0978C29.3993 13.8114 29.4612 13.5171 29.4951 13.2188C29.5891 12.572 29.5526 11.9126 29.3867 11.2804C29.2478 10.7781 28.998 10.3132 28.6563 9.92002C28.3145 9.52687 27.8889 9.2151 27.4112 9.00791C26.2891 8.44969 25.3784 8.77014 24.3653 9.16807C24.0225 9.31329 23.7298 9.55564 23.5215 9.86435C23.3132 10.1731 23.198 10.5358 23.1914 10.9083C23.1909 11.2032 22.3838 11.1263 21.9864 10.8312C21.5897 10.5366 22.4123 9.25788 22.416 9.25205C22.416 9.25205 21.6726 9.09157 21.5889 8.61045C21.5066 8.13515 22.343 7.79097 22.3643 7.78232C22.1162 7.21595 21.9026 6.63498 21.7237 6.04307C21.7237 5.82483 22.0376 5.67043 22.2813 5.72178C22.525 5.77313 23.0063 7.53186 23.0576 7.7501C23.1091 7.96793 23.4867 7.72414 23.6983 7.69834C23.9099 7.67266 22.9742 5.71482 22.9229 5.63779C22.8723 5.56059 23.2949 5.31748 23.4551 5.31748C23.8704 6.00118 24.2282 6.71825 24.5254 7.46103C24.7537 7.34072 24.969 7.19687 25.167 7.03135C25.3529 6.84533 24.5205 5.40907 24.417 5.21494C24.3145 5.02253 24.7303 4.91921 24.9229 4.91904C25.1153 4.91904 25.6221 6.20322 25.6221 6.20322C25.639 5.96174 25.639 5.71911 25.6221 5.47764C25.5642 5.16165 25.436 4.86261 25.2461 4.60361C25.0562 4.34456 24.8093 4.13258 24.5254 3.98252C23.6213 3.47557 22.9996 3.87979 21.961 4.11728C20.9221 4.35478 21.2166 3.17307 20.2803 2.58896C19.3442 2.00507 18.6258 2.03104 17.2344 2.32627C15.8429 2.62155 15.6568 3.4174 15.8428 4.00791C16.0287 4.59835 16.7278 4.73291 16.9395 4.78428C17.1511 4.83563 17.1001 5.13147 16.8565 5.34971C16.7382 5.4707 16.5887 5.55682 16.4248 5.59873C16.261 5.64057 16.0885 5.63637 15.9268 5.58701C15.5357 5.54513 15.1661 5.38427 14.8692 5.12607C14.5722 4.86786 14.3618 4.52447 14.2656 4.14267C13.8937 3.01939 15.3047 1.73545 15.3047 1.73545ZM16.0225 15.6134C16.2918 15.6649 16.9647 16.6518 17.3047 16.8321C17.6446 17.0119 18.0874 16.6725 18.2862 16.756C18.4911 16.8331 18.2281 17.1407 17.9268 17.2755C17.6959 17.3745 17.4416 17.4068 17.1934 17.3683C16.9451 17.3297 16.7125 17.2212 16.5225 17.0567C15.9006 16.5947 15.4834 16.152 15.4834 16.0108C15.4861 15.9467 15.5032 15.8839 15.5332 15.8272C15.5634 15.7705 15.6065 15.7209 15.6582 15.6827C15.7098 15.6447 15.7692 15.6186 15.8321 15.6065C15.8951 15.5945 15.9604 15.597 16.0225 15.6134ZM15.8369 15.3839C14.5837 14.7267 17.6569 13.6604 19.2852 14.3253C21.0951 15.0645 20.3438 16.1104 20.3438 16.1104C20.344 16.1381 20.3532 17.6273 19.8916 17.0147C19.6019 16.6301 19.7373 16.3841 19.7373 15.6827C19.7369 14.7251 17.6466 14.4792 15.8369 15.3839ZM12.9961 11.4981C13.0173 11.4959 13.7564 11.4216 13.6182 11.8575C13.2817 12.7101 13.0867 13.6128 13.041 14.5284C13.0988 15.4076 13.3226 15.6131 13.2393 15.7735C13.1554 15.9338 12.1175 15.7282 12.0342 15.587C11.8821 14.1544 12.2213 12.7122 12.9961 11.4981ZM26.0381 10.045C27.2693 9.78827 26.9779 10.0972 27.8828 10.6749C28.7873 11.2531 28.7871 13.421 28.7871 13.421C28.7869 13.4364 28.7714 13.873 27.8828 13.8731C26.9779 13.8731 28.0553 12.6745 27.6924 12.0636C27.4575 11.6685 27.2607 11.4367 26.8399 11.252C26.3423 11.0339 26.1569 11.9794 25.6201 12.0636C25.1422 12.1384 22.9982 12.5467 24.2627 11.6104C25.5269 10.6744 24.8072 10.3018 26.0381 10.045ZM4.40237 9.14951C4.63321 9.07249 5.34507 9.39291 4.76174 9.77158C4.19558 10.0471 3.73231 10.4975 3.44045 11.0558C3.32505 11.3396 3.32501 11.6576 3.44045 11.9415C3.43416 12.019 3.40981 12.094 3.36916 12.1603C3.3286 12.2263 3.27304 12.2818 3.20705 12.3224C3.14088 12.363 3.06568 12.3874 2.9883 12.3937C2.91086 12.3999 2.83264 12.388 2.76076 12.3585C2.2994 12.2172 2.25429 11.6591 2.376 11.0753C2.56359 10.6323 2.84089 10.2327 3.18948 9.90146C3.53802 9.57025 3.95075 9.31405 4.40237 9.14951ZM18.0313 7.93662C19.2624 7.67988 18.9702 7.9879 19.875 8.56553C20.78 9.14321 20.7803 11.3116 20.7803 11.3116C20.7801 11.3231 20.7682 11.7638 19.875 11.7638C18.9708 11.7634 20.0486 10.565 19.6856 9.9542C19.4507 9.55912 19.2539 9.32735 18.833 9.14267C18.3354 8.92435 17.4158 9.05858 16.8789 9.14267C16.4003 9.21776 13.3528 10.0788 14.6172 9.14267C15.8815 8.20681 16.8003 8.19331 18.0313 7.93662ZM10.4072 5.00205C9.15395 4.34487 11.3396 2.97961 12.9678 3.64463C14.7776 4.38389 14.4795 5.88193 14.4795 5.88193C14.4749 5.89316 14.0377 6.94902 13.5742 6.33408C13.2843 5.94933 13.4199 5.70361 13.4199 5.00205C13.4199 4.04432 12.2169 4.09729 10.4072 5.00205Z" fill="currentColor"></path>
</symbol><symbol viewBox="0 0 31 24" id="speed-math-medium">
  <g fill="currentColor">
    <path d="M30.5928 10.5171C29.7656 7.30765 26.2386 7.54514 26.2386 7.54514L26.5592 7.2242C26.5592 7.2242 27.3864 6.15868 26.2386 3.88C25.0907 1.60131 22.2562 2.73103 22.2562 2.73103C22.2562 2.73103 22.0446 1.98644 20.4157 1.07497C18.7869 0.163498 16.6194 1.152 16.6194 1.152C15.8878 0.537495 14.9995 0.139575 14.0543 0.00302698C12.6883 -0.0739989 10.7901 1.34456 10.7901 1.34456C10.1717 0.946357 9.43841 0.765679 8.70598 0.831055C7.32087 0.967232 6.01762 1.55076 4.99298 2.49353C3.76813 3.61682 4.807 5.29855 4.807 5.29855C3.71766 5.92807 2.67406 6.63376 1.68398 7.41035C0.318051 8.50797 -0.188559 10.2218 0.0615394 12.6481C0.130059 13.3245 0.417898 13.9598 0.881088 14.4571C1.34428 14.9543 1.95735 15.2861 2.62666 15.4018C2.197 17.4365 4.33887 18.1555 6.26271 18.4764C7.69361 18.6191 9.13853 18.4661 10.508 18.0271C11.6709 18.9032 12.9712 19.58 14.3557 20.0298C16.2795 20.5625 19.8322 20.2993 19.8322 20.2993C19.8322 20.2993 20.0438 21.5831 20.7428 21.8784C21.4499 22.1587 22.2012 22.3108 22.9616 22.3277C23.5452 22.3277 24.2442 23.804 24.2955 23.9324C24.3468 24.0608 24.7251 23.9902 24.9881 23.8554C25.0234 23.8419 25.0556 23.8215 25.0829 23.7954C25.1102 23.7693 25.132 23.7379 25.1469 23.7032C25.1619 23.6685 25.1697 23.6311 25.1699 23.5933C25.1702 23.5555 25.1629 23.518 25.1484 23.4831C25.2819 23.5534 25.4278 23.597 25.578 23.6115C25.8849 23.5924 26.1764 23.4703 26.4053 23.2648C26.5913 23.053 26.1103 21.7693 26.059 21.2878C26.0715 20.5518 26.3364 19.8425 26.8093 19.2788C27.3416 18.6369 28.7844 17.4879 29.5604 16.3389C30.3363 15.19 31.4201 13.7008 30.5928 10.5171ZM23.3528 21.4291C23.2438 21.5061 22.8205 21.9875 21.7753 21.5382C20.73 21.0889 20.4927 20.6524 20.839 20.3058C21.3531 20.3318 21.8597 20.4401 22.3396 20.6267C23.0322 20.9476 23.4618 21.3713 23.3528 21.4547V21.4291ZM29.4963 13.2194C29.2613 15.2855 27.832 16.1753 25.7576 18.5663C25.546 18.8102 24.475 20.3828 24.475 20.3828C24.475 20.3828 22.8975 19.022 21.538 18.9642C20.1785 18.9065 17.049 19.4456 14.9905 18.8615C12.932 18.2774 11.1428 16.9359 10.7132 15.3055C10.5969 14.5705 10.6417 13.819 10.8443 13.103C11.047 12.387 11.4026 11.7237 11.8867 11.1589C12.4341 10.6917 13.0999 10.3851 13.8106 10.2731C13.9965 10.2731 14.1569 10.3309 14.1312 10.1383C14.0789 9.9518 13.9615 9.79022 13.8003 9.68303C13.639 9.57583 13.4447 9.53012 13.2527 9.55423C12.434 9.70929 11.6746 10.0893 11.0595 10.6519C9.65458 11.8066 9.84305 13.0198 9.43063 14.7663C9.43063 14.7663 9.53965 15.7548 9.64225 16.3197C9.67174 16.6014 9.7935 16.8654 9.98854 17.0707C8.20111 17.0707 6.44949 18.1931 4.19138 16.3646C4.10588 16.2318 4.05215 16.0811 4.03435 15.9241C4.01655 15.7671 4.03518 15.6081 4.08877 15.4596C4.08877 15.2413 4.21703 14.5481 3.81943 14.3876C3.81943 14.3876 2.13287 14.0667 1.62626 12.9434C1.32977 12.26 1.22331 11.5091 1.31813 10.7702C1.41296 10.0312 1.70554 9.33166 2.16493 8.74546C3.10289 7.6167 4.30287 6.73516 5.65991 6.17793C5.92512 6.07049 6.20979 6.01956 6.49577 6.0284C6.78174 6.03725 7.06274 6.10566 7.32082 6.22928C7.9783 6.60407 8.70465 6.84204 9.45628 6.92894C10.2579 6.92894 10.9825 6.49888 11.0082 6.25496C11.0338 6.01104 10.6298 5.96611 10.2066 5.93402C9.71269 6.0025 9.20966 5.9197 8.7637 5.69652C8.34415 5.51895 7.95641 5.27394 7.61581 4.9712C7.61581 4.9712 7.61581 4.32931 7.98775 4.14317C8.35969 3.95702 8.62903 3.66176 8.25709 3.44993C7.88515 3.23811 7.55809 3.61041 7.29517 3.8479C7.03224 4.0854 7.00018 4.70802 6.78214 4.70802C6.56411 4.70802 5.98055 4.84282 5.98055 4.75937C5.98055 4.67593 5.49959 3.79655 5.98055 3.34081C6.25697 2.98609 6.60992 2.69849 7.01303 2.49953C7.41613 2.30057 7.85895 2.19538 8.30839 2.19184C9.45628 2.27529 10.2322 2.88508 11.2454 2.51279C12.2587 2.14049 12.6114 1.49861 13.6502 1.36382C14.6891 1.22902 14.8238 1.1199 15.3047 1.73611C15.3047 1.73611 13.8939 3.01987 14.2659 4.14317C14.362 4.52499 14.5727 4.86815 14.8697 5.12639C15.1667 5.38462 15.5356 5.54552 15.9268 5.5874C16.0886 5.6369 16.261 5.64093 16.425 5.59905C16.5889 5.55716 16.7383 5.47098 16.8566 5.34991C17.1003 5.13167 17.1516 4.8364 16.94 4.78505C16.7284 4.7337 16.0294 4.5989 15.8434 4.00837C15.6574 3.41784 15.8434 2.62191 17.235 2.32664C18.6266 2.03137 19.3448 2.0057 20.2811 2.58981C21.2173 3.17393 20.9224 4.35499 21.9612 4.11749C23.0001 3.88 23.6221 3.47561 24.5263 3.9827C24.8102 4.13276 25.0564 4.34531 25.2463 4.60436C25.4363 4.86342 25.565 5.16222 25.6229 5.47828C25.6589 5.99364 25.5662 6.63268 25.1676 7.03164C23.1548 8.71451 23.5293 7.69226 22.3652 7.78264C22.3652 7.78264 21.5059 8.12926 21.5893 8.61067C21.6726 9.09208 22.4165 9.25255 22.4165 9.25255C22.4165 9.25255 21.5893 10.5363 21.9869 10.8316C22.3845 11.1268 23.1925 11.2039 23.1925 10.9086C23.199 10.5361 23.3134 10.1735 23.5217 9.86474C23.73 9.55599 24.0233 9.31435 24.366 9.16911C25.3792 8.77114 26.2899 8.4502 27.4121 9.00863C27.8899 9.21584 28.3152 9.52746 28.657 9.92065C28.9988 10.3138 29.2483 10.7786 29.3872 11.2809C29.5531 11.9132 29.5902 12.5724 29.4963 13.2194ZM12.9961 11.4991C12.2212 12.7133 11.882 14.1552 12.0342 15.5879C12.1176 15.7291 13.1565 15.9345 13.2398 15.7741C13.3232 15.6136 13.0987 15.4082 13.041 14.5288C13.0867 13.6132 13.2817 12.7112 13.6182 11.8586C13.7593 11.4157 12.9961 11.4991 12.9961 11.4991ZM4.403 9.14985C3.95125 9.31439 3.53819 9.57027 3.18955 9.90157C2.84092 10.2329 2.56417 10.6325 2.37656 11.0755C2.25471 11.6596 2.2996 12.218 2.76132 12.3593C2.8332 12.3888 2.91102 12.401 2.98847 12.3947C3.06592 12.3885 3.1408 12.3641 3.20704 12.3234C3.27328 12.2827 3.32899 12.227 3.36966 12.1608C3.41033 12.0945 3.4348 12.0196 3.44108 11.942C3.32559 11.6581 3.32559 11.3402 3.44108 11.0562C3.73294 10.4979 4.19595 10.048 4.76212 9.77247C5.34568 9.39376 4.63386 9.07282 4.403 9.14985Z"></path>
    <path d="M19.0044 14.932C17.3762 14.267 14.1312 16.0848 15.3845 16.742C17.1945 15.837 19.4569 15.3316 19.4569 16.2895C19.4569 16.9911 19.3209 17.2368 19.6109 17.6215C20.0768 18.2398 20.0634 16.7166 20.0634 16.7166C20.0634 16.7166 20.8144 15.6713 19.0044 14.932Z"></path>
    <path d="M23.9818 12.2171C25.2463 11.2809 24.5263 10.9086 25.7576 10.6519C26.9888 10.3951 26.6967 10.7032 27.6016 11.2809C28.5066 11.8586 28.5066 14.0271 28.5066 14.0271C28.5066 14.0271 28.5066 14.4796 27.6016 14.4796C26.6967 14.4796 27.7753 13.2805 27.4121 12.6696C27.1772 12.2745 26.9801 12.0433 26.5592 11.8586C26.0615 11.6402 25.8761 12.5855 25.3392 12.6696C24.8612 12.7445 22.7172 13.1533 23.9818 12.2171Z"></path>
  </g>
</symbol><symbol viewBox="0 0 29 24" id="speed-math-minutes-sholder">
  <path d="M3.05263 3H29V0H0V24H3.05263V3Z" fill="currentColor"></path>
</symbol><symbol viewBox="0 0 19 24" id="speed-math-n">
  <path d="M19 24H15.4753L2.65195 4.06723H2.51767C2.54005 4.47059 2.56243 4.91877 2.58481 5.41176C2.62957 5.90476 2.66314 6.44258 2.68552 7.02521C2.70789 7.58543 2.73027 8.16807 2.75265 8.77311C2.77503 9.37815 2.78622 9.98319 2.78622 10.5882V24H0V0H3.49117L16.2809 19.8655H16.4152C16.3928 19.5966 16.3704 19.2269 16.3481 18.7563C16.3257 18.2633 16.3033 17.7255 16.2809 17.1429C16.2585 16.5378 16.2362 15.9216 16.2138 15.2941C16.1914 14.6667 16.1802 14.084 16.1802 13.5462V0H19V24Z" fill="currentColor"></path>
</symbol><symbol viewBox="0 0 29 24" id="speed-math-seconds-sholder">
  <path d="M25.9474 3H0V0H29V24H25.9474V3Z" fill="currentColor"></path>
</symbol><symbol viewBox="0 0 24 24" id="speed-math-settings">
  <g fill="currentColor">
    <path d="M22.7715 9.48068L21.087 9.1949C20.9115 8.62837 20.6859 8.08189 20.4102 7.56048L21.4028 6.17172C21.824 5.58011 21.7588 4.77293 21.2424 4.26154L19.7484 2.7675C19.4676 2.48674 19.0966 2.33131 18.7005 2.33131C18.3897 2.33131 18.0939 2.42657 17.8432 2.60706L16.4495 3.59975C15.908 3.31398 15.3415 3.07834 14.7549 2.90286L14.4741 1.23835C14.3538 0.521412 13.7371 0 13.0102 0H10.8995C10.1725 0 9.55582 0.521412 9.4355 1.23835L9.14471 2.94297C8.58319 3.11845 8.03672 3.34907 7.51531 3.62983L6.13658 2.63714C5.88591 2.45665 5.58509 2.3614 5.27425 2.3614C4.87818 2.3614 4.50217 2.51682 4.22642 2.79758L2.72737 4.29162C2.21599 4.80301 2.1458 5.61019 2.56694 6.2018L3.56965 7.61061C3.2939 8.13704 3.07331 8.68352 2.90284 9.25005L1.23835 9.53081C0.521409 9.65114 0 10.2678 0 10.9948V13.1055C0 13.8325 0.521409 14.4491 1.23835 14.5695L2.94295 14.8602C3.11843 15.4218 3.34905 15.9682 3.62981 16.4897L2.64214 17.8634C2.221 18.455 2.28618 19.2622 2.80257 19.7736L4.29661 21.2676C4.57737 21.5484 4.94837 21.7038 5.34444 21.7038C5.65528 21.7038 5.95108 21.6085 6.20176 21.428L7.61057 20.4253C8.11694 20.691 8.64837 20.9066 9.19485 21.0771L9.47561 22.7616C9.59593 23.4786 10.2126 24 10.9396 24H13.0553C13.7822 24 14.3989 23.4786 14.5192 22.7616L14.805 21.0771C15.3715 20.9016 15.918 20.676 16.4394 20.4003L17.8282 21.3929C18.0789 21.5734 18.3797 21.6687 18.6905 21.6687C19.0866 21.6687 19.4576 21.5133 19.7383 21.2325L21.2324 19.7385C21.7438 19.2271 21.814 18.4199 21.3928 17.8283L20.4001 16.4345C20.6759 15.9081 20.9065 15.3616 21.077 14.8001L22.7615 14.5193C23.4784 14.399 23.9999 13.7823 23.9999 13.0554V10.9446C24.0099 10.2177 23.4885 9.601 22.7715 9.48068ZM22.6562 13.0554C22.6562 13.1205 22.6111 13.1757 22.5459 13.1857L20.4402 13.5367C20.1745 13.5818 19.964 13.7773 19.8988 14.033C19.7083 14.77 19.4175 15.4769 19.0264 16.1337C18.8911 16.3643 18.9011 16.6501 19.0565 16.8707L20.2948 18.6154C20.3299 18.6656 20.3249 18.7408 20.2798 18.7859L18.7858 20.2799C18.7507 20.315 18.7156 20.32 18.6905 20.32C18.6604 20.32 18.6354 20.31 18.6153 20.295L16.8756 19.0566C16.66 18.9012 16.3692 18.8912 16.1386 19.0265C15.4818 19.4176 14.7749 19.7084 14.0379 19.8989C13.7772 19.9641 13.5817 20.1797 13.5416 20.4404L13.1856 22.5461C13.1756 22.6112 13.1205 22.6564 13.0553 22.6564H10.9446C10.8794 22.6564 10.8243 22.6112 10.8142 22.5461L10.4633 20.4404C10.4182 20.1746 10.2226 19.9641 9.96693 19.8989C9.25 19.7134 8.55813 19.4276 7.91138 19.0566C7.8061 18.9965 7.68577 18.9664 7.57046 18.9664C7.43509 18.9664 7.29471 19.0065 7.1794 19.0917L5.42466 20.3401C5.39959 20.3551 5.37452 20.3652 5.34946 20.3652C5.3294 20.3652 5.28929 20.3601 5.2542 20.325L3.76016 18.831C3.71504 18.7859 3.71003 18.7157 3.74512 18.6605L4.97845 16.9309C5.13387 16.7103 5.1439 16.4195 5.00854 16.1888C4.61748 15.5371 4.31667 14.8302 4.12615 14.0932C4.05596 13.8375 3.84539 13.6419 3.58469 13.5968L1.46396 13.2358C1.39878 13.2258 1.35366 13.1707 1.35366 13.1055V10.9948C1.35366 10.9296 1.39878 10.8745 1.46396 10.8644L3.55461 10.5135C3.82032 10.4684 4.03591 10.2728 4.10108 10.0121C4.28658 9.27512 4.57236 8.56319 4.9584 7.90641C5.09377 7.67579 5.07872 7.39001 4.9233 7.17443L3.67493 5.41968C3.63984 5.36954 3.64485 5.29434 3.68997 5.24922L5.18401 3.75517C5.2191 3.72008 5.2542 3.71506 5.27927 3.71506C5.30935 3.71506 5.33442 3.72509 5.35447 3.74013L7.08414 4.97347C7.30474 5.12889 7.59553 5.13892 7.82615 5.00355C8.47791 4.61249 9.18482 4.31168 9.92181 4.12116C10.1775 4.05097 10.373 3.8404 10.4182 3.5797L10.7791 1.45895C10.7892 1.39377 10.8443 1.34865 10.9095 1.34865H13.0202C13.0854 1.34865 13.1405 1.39377 13.1505 1.45895L13.5015 3.54961C13.5466 3.81533 13.7421 4.03092 14.0028 4.09609C14.7599 4.28661 15.4818 4.58241 16.1537 4.97848C16.3843 5.11385 16.67 5.10382 16.8906 4.9484L18.6203 3.70503C18.6454 3.68999 18.6705 3.67997 18.6955 3.67997C18.7156 3.67997 18.7557 3.68498 18.7908 3.72008L20.2848 5.21412C20.3299 5.25924 20.335 5.32943 20.2999 5.38458L19.0615 7.12429C18.9061 7.33988 18.8961 7.63067 19.0314 7.86129C19.4225 8.51807 19.7133 9.22498 19.9038 9.96198C19.969 10.2227 20.1845 10.4182 20.4453 10.4583L22.5509 10.8143C22.6161 10.8243 22.6612 10.8795 22.6612 10.9446V13.0554H22.6562Z"></path>
    <path d="M12.0024 6.81847C9.14471 6.81847 6.82344 9.13975 6.82344 11.9975C6.82344 14.8552 9.14471 17.1765 12.0024 17.1765C14.8602 17.1765 17.1814 14.8552 17.1814 11.9975C17.1814 9.13975 14.8602 6.81847 12.0024 6.81847ZM12.0024 15.8229C9.89173 15.8229 8.1771 14.1082 8.1771 11.9975C8.1771 9.88678 9.89173 8.17213 12.0024 8.17213C14.1131 8.17213 15.8278 9.88678 15.8278 11.9975C15.8278 14.1082 14.1131 15.8229 12.0024 15.8229Z"></path>
  </g>
</symbol><symbol viewBox="0 0 21 24" id="speed-math-timer">
  <g fill="currentColor">
    <path d="M7.63636 1.875H13.3636C13.8908 1.875 14.3182 1.45528 14.3182 0.9375C14.3182 0.419719 13.8908 0 13.3636 0H7.63636C7.10917 0 6.68182 0.419719 6.68182 0.9375C6.68182 1.45528 7.10917 1.875 7.63636 1.875Z"></path>
    <path d="M13.2 9.71003L9.82523 13.0246C9.45243 13.3907 9.45238 13.9842 9.82518 14.3504C10.1981 14.7166 10.8024 14.7164 11.1751 14.3504L14.5499 11.0358C14.9227 10.6697 14.9228 10.0762 14.55 9.71003C14.1772 9.34394 13.5729 9.34398 13.2 9.71003Z"></path>
    <path d="M10.5 3.375C4.69698 3.375 0 7.98731 0 13.6875C0 19.3869 4.69612 24 10.5 24C16.3032 24 21 19.3876 21 13.6875C21 7.98811 16.3038 3.375 10.5 3.375ZM10.5 22.125C5.76297 22.125 1.90909 18.3399 1.90909 13.6875C1.90909 9.03506 5.76297 5.25 10.5 5.25C15.237 5.25 19.0909 9.03506 19.0909 13.6875C19.0909 18.3399 15.237 22.125 10.5 22.125Z"></path>
  </g>
</symbol><symbol viewBox="0 0 24 24" id="speed-math-world">
  <path d="M2.21813 5.07321C2.21853 5.06548 2.21938 5.05774 2.22069 5.05005C2.25068 5.0072 2.28756 4.97033 2.31846 4.92833C2.54254 4.62309 2.77977 4.3293 3.03013 4.04691C3.09871 3.96975 3.16734 3.89344 3.23762 3.81798C3.49541 3.54193 3.76581 3.27868 4.04877 3.02835C4.10107 2.98203 4.14995 2.93405 4.20226 2.88859C4.8996 2.29122 5.66317 1.77568 6.47793 1.35218C6.51054 1.33505 6.5448 1.32048 6.57826 1.3033C6.94111 1.11893 7.31314 0.953192 7.69297 0.806851C7.77873 0.776005 7.85676 0.746817 7.9382 0.721095C8.27602 0.59937 8.61901 0.492766 8.96714 0.401284C9.07003 0.373854 9.17292 0.345571 9.27753 0.321557C9.62052 0.24183 9.96347 0.180943 10.3142 0.131208C10.4205 0.115785 10.5251 0.0951874 10.6323 0.0823266C11.5356 -0.0274422 12.4489 -0.0274422 13.3522 0.0823266C13.4594 0.0951874 13.564 0.115785 13.6703 0.131208C14.021 0.180943 14.3674 0.24183 14.707 0.321557C14.8116 0.345571 14.9145 0.373854 15.0174 0.401284C15.3678 0.492716 15.7108 0.59932 16.0463 0.721095C16.1321 0.750233 16.2101 0.779421 16.2916 0.806851C16.6713 0.953192 17.0434 1.11888 17.4063 1.3033C17.4397 1.32043 17.474 1.335 17.5066 1.35218C18.3241 1.77523 19.0902 2.29071 19.79 2.88859C19.8423 2.934 19.8912 2.98203 19.9435 3.02835C20.2293 3.27984 20.4997 3.54308 20.7546 3.81798C20.8249 3.89344 20.8936 3.96975 20.9621 4.04691C21.2131 4.3287 21.4503 4.62248 21.6738 4.92828C21.7047 4.97028 21.7415 5.00715 21.7716 5.05C21.7755 5.05749 21.779 5.06523 21.7819 5.07316C24.7394 9.2176 24.7394 14.7824 21.7819 18.9268C21.779 18.9347 21.7755 18.9425 21.7716 18.9499C21.7416 18.9928 21.7047 19.0297 21.6738 19.0717C21.4503 19.3769 21.2131 19.6707 20.9621 19.9531C20.8936 20.0303 20.8249 20.1066 20.7546 20.182C20.4962 20.4581 20.2259 20.7213 19.9435 20.9717C19.8912 21.018 19.8423 21.0659 19.79 21.1114C19.0927 21.7088 18.3291 22.2243 17.5143 22.6478C17.4817 22.665 17.4475 22.6795 17.414 22.6967C17.0512 22.8811 16.6791 23.0468 16.2993 23.1931C16.2135 23.224 16.1355 23.2532 16.0541 23.2789C15.7162 23.4006 15.3732 23.5072 15.0251 23.5987C14.9222 23.6261 14.8193 23.6544 14.7147 23.6784C14.3717 23.7582 14.0288 23.8191 13.6781 23.8688C13.5717 23.8842 13.4671 23.9048 13.3599 23.9177C12.4566 24.0274 11.5434 24.0274 10.6401 23.9177C10.5329 23.9048 10.4283 23.8842 10.3219 23.8688C9.97126 23.8191 9.62484 23.7582 9.28526 23.6784C9.18066 23.6544 9.07777 23.6261 8.97487 23.5987C8.62389 23.5073 8.28089 23.4007 7.94593 23.2789C7.86017 23.2498 7.78215 23.2206 7.7007 23.1931C7.32093 23.0468 6.94885 22.8811 6.586 22.6967C6.55254 22.6796 6.51828 22.665 6.48567 22.6478C5.67091 22.2243 4.90734 21.7088 4.20999 21.1114C4.15769 21.0659 4.10881 21.018 4.05651 20.9717C3.77068 20.7207 3.50028 20.4575 3.24536 20.182C3.17507 20.1066 3.10644 20.0303 3.03786 19.9531C2.78691 19.6707 2.54967 19.3769 2.3262 19.0717C2.29535 19.0297 2.25847 18.9928 2.22843 18.9499C2.22451 18.9425 2.22104 18.9347 2.21813 18.9268C-0.739375 14.7824 -0.739375 9.21765 2.21813 5.07321ZM3.19648 6.69543C2.37644 8.04586 1.88126 9.56826 1.74998 11.1427H6.88609C6.949 10.1211 7.10977 9.10788 7.36625 8.117C5.91543 7.84532 4.51114 7.36655 3.19648 6.69543ZM9.8143 1.94804C9.76627 1.9592 9.72 1.97462 9.67197 1.98577C9.365 2.05781 9.06059 2.1401 8.76306 2.24299C8.71759 2.25841 8.67303 2.27645 8.62841 2.29272C8.33344 2.39561 8.0428 2.50965 7.75808 2.63569C7.70834 2.65885 7.65946 2.68457 7.60972 2.70773C7.33706 2.8375 7.07068 2.97781 6.81058 3.12872L6.63911 3.23246C6.39217 3.38338 6.15207 3.54484 5.91885 3.7169C5.85881 3.76061 5.79882 3.80266 5.73964 3.85064C5.51099 4.0221 5.29204 4.20586 5.08283 4.40194C5.02797 4.45168 4.97135 4.50056 4.91734 4.552C4.69784 4.76034 4.48863 4.98068 4.28626 5.20875C4.26053 5.23875 4.2331 5.26618 4.20738 5.29451C5.36841 5.84777 6.59836 6.24284 7.86439 6.46911C8.45091 4.85689 9.22568 3.31953 10.1726 1.88896C10.0536 1.91037 9.93177 1.92237 9.8143 1.94804ZM15.3946 11.1426C15.327 10.215 15.169 9.29607 14.923 8.39903C13.9515 8.51443 12.974 8.57165 11.9956 8.57049C11.0164 8.57019 10.038 8.51151 9.06571 8.39471C8.82013 9.29321 8.66303 10.2136 8.59671 11.1426H15.3946ZM8.59671 12.8575C8.66433 13.7851 8.82229 14.704 9.06832 15.6011C10.0398 15.4857 11.0173 15.4285 11.9957 15.4296C12.9749 15.4285 13.9532 15.4857 14.9256 15.6011C15.1709 14.704 15.328 13.7851 15.3947 12.8575H8.59671V12.8575ZM11.9957 2.27047C11.0199 3.65335 10.2173 5.15068 9.60595 6.72889C10.3997 6.81319 11.1974 6.85554 11.9957 6.85579C12.7931 6.85483 13.5899 6.81223 14.3828 6.72803C13.7707 5.15088 12.9691 3.65406 11.9957 2.27047ZM19.7041 5.20785C19.5026 4.97977 19.2926 4.75943 19.0731 4.5511C19.0191 4.49965 18.9624 4.45077 18.9076 4.40104C18.6961 4.20843 18.4771 4.02466 18.2508 3.84973C18.1916 3.80427 18.1316 3.76398 18.0716 3.716C17.8383 3.54454 17.5982 3.38303 17.3513 3.23156L17.1798 3.12782C16.9197 2.9758 16.6533 2.83544 16.3807 2.70683C16.3309 2.68367 16.2821 2.65795 16.2323 2.63479C15.9477 2.50618 15.657 2.39214 15.362 2.29182C15.3174 2.27554 15.2762 2.25751 15.2274 2.24208C14.9299 2.14261 14.6272 2.06032 14.3185 1.98487C14.2705 1.97372 14.2242 1.95829 14.1753 1.94799C14.0578 1.92227 13.936 1.91027 13.8169 1.88881C14.7642 3.31963 15.5392 4.85729 16.126 6.46981C17.392 6.24355 18.6221 5.84848 19.783 5.29521C19.7573 5.26527 19.7299 5.23784 19.7041 5.20785ZM20.7948 6.69543C19.4805 7.3665 18.0765 7.84526 16.6259 8.117C16.8821 9.10793 17.0426 10.1211 17.1052 11.1427H22.2413C22.11 9.56826 21.6148 8.04586 20.7948 6.69543ZM20.7948 17.3047C21.6149 15.9543 22.11 14.4319 22.2413 12.8575H17.1052C17.0423 13.8791 16.8815 14.8923 16.6251 15.8832C18.0759 16.1548 19.4802 16.6335 20.7948 17.3047ZM14.177 22.0521C14.225 22.0409 14.2713 22.0255 14.3193 22.0143C14.6263 21.9423 14.9307 21.86 15.2283 21.7571C15.2737 21.7417 15.3183 21.7237 15.3629 21.7074C15.6579 21.6045 15.9485 21.4905 16.2332 21.3644C16.283 21.3412 16.3319 21.3155 16.3816 21.2924C16.6542 21.1626 16.9206 21.0223 17.1807 20.8714L17.3522 20.7676C17.5991 20.6167 17.8392 20.4553 18.0725 20.2832C18.1325 20.2395 18.1925 20.1974 18.2517 20.1495C18.4803 19.978 18.6993 19.7942 18.9085 19.5982C18.9633 19.5484 19.02 19.4995 19.074 19.4481C19.2935 19.2398 19.5027 19.0194 19.7051 18.7913C19.7308 18.7614 19.7582 18.7339 19.7839 18.7056C18.6229 18.1523 17.3929 17.7573 16.1269 17.531C15.5404 19.1432 14.7656 20.6806 13.8187 22.1111C13.9378 22.0898 14.0595 22.0778 14.177 22.0521ZM11.9957 21.7297C12.9715 20.3468 13.774 18.8495 14.3854 17.2713C12.7974 17.1004 11.1957 17.1004 9.60771 17.2713L9.60857 17.2721C10.2206 18.8492 11.0222 20.346 11.9957 21.7297ZM4.28716 18.7922C4.48868 19.0203 4.69874 19.2407 4.91824 19.449C4.97225 19.5004 5.02888 19.5493 5.08374 19.5991C5.29525 19.7923 5.51421 19.976 5.74054 20.1504C5.79973 20.1958 5.85971 20.2404 5.91975 20.2841C6.15297 20.4556 6.39308 20.6171 6.64001 20.7685L6.81149 20.8723C7.07103 21.0237 7.33741 21.1641 7.61062 21.2933C7.66036 21.3164 7.70925 21.3422 7.75898 21.3653C8.04365 21.4939 8.33435 21.608 8.62931 21.7083C8.67388 21.7246 8.71508 21.7426 8.76391 21.758C9.06144 21.8575 9.36414 21.9398 9.67283 22.0152C9.72086 22.0264 9.76713 22.0418 9.81601 22.0521C9.93348 22.0778 10.0553 22.0898 10.1744 22.1113C9.22749 20.6807 8.45267 19.1434 7.8662 17.5311C6.60017 17.7574 5.37016 18.1525 4.20919 18.7057C4.23401 18.7348 4.26144 18.7623 4.28716 18.7922ZM3.19648 17.3047C4.51084 16.6336 5.91483 16.1549 7.3654 15.8832C7.10922 14.8922 6.94869 13.879 6.88609 12.8575H1.74998C1.88131 14.4318 2.37649 15.9542 3.19648 17.3047Z" fill="currentColor"></path>
</symbol></svg>