<svg xmlns="http://www.w3.org/2000/svg" xmlns:xlink="http://www.w3.org/1999/xlink" width="0" height="0" style="display:none;"><symbol viewBox="0 0 27 24" id="speed-math-back">
  <path fill-rule="evenodd" clip-rule="evenodd" d="M0.416217 13.1523C-0.138739 12.5159 -0.138739 11.4841 0.416217 10.8477L9.45974 0.477287C10.0147 -0.159096 10.9145 -0.159096 11.4694 0.477287C12.0244 1.11367 12.0244 2.14545 11.4694 2.78183L4.85178 10.3704H27V13.6296H4.85178L11.4694 21.2182C12.0244 21.8546 12.0244 22.8863 11.4694 23.5227C10.9145 24.1591 10.0147 24.1591 9.45974 23.5227L0.416217 13.1523Z" fill="currentColor"></path>
</symbol><symbol viewBox="0 0 19 24" id="speed-math-n">
  <path d="M19 24H15.4753L2.65195 4.06723H2.51767C2.54005 4.47059 2.56243 4.91877 2.58481 5.41176C2.62957 5.90476 2.66314 6.44258 2.68552 7.02521C2.70789 7.58543 2.73027 8.16807 2.75265 8.77311C2.77503 9.37815 2.78622 9.98319 2.78622 10.5882V24H0V0H3.49117L16.2809 19.8655H16.4152C16.3928 19.5966 16.3704 19.2269 16.3481 18.7563C16.3257 18.2633 16.3033 17.7255 16.2809 17.1429C16.2585 16.5378 16.2362 15.9216 16.2138 15.2941C16.1914 14.6667 16.1802 14.084 16.1802 13.5462V0H19V24Z" fill="currentColor"></path>
</symbol><symbol viewBox="0 0 24 24" id="speed-math-settings">
  <g fill="currentColor">
    <path d="M22.7715 9.48068L21.087 9.1949C20.9115 8.62837 20.6859 8.08189 20.4102 7.56048L21.4028 6.17172C21.824 5.58011 21.7588 4.77293 21.2424 4.26154L19.7484 2.7675C19.4676 2.48674 19.0966 2.33131 18.7005 2.33131C18.3897 2.33131 18.0939 2.42657 17.8432 2.60706L16.4495 3.59975C15.908 3.31398 15.3415 3.07834 14.7549 2.90286L14.4741 1.23835C14.3538 0.521412 13.7371 0 13.0102 0H10.8995C10.1725 0 9.55582 0.521412 9.4355 1.23835L9.14471 2.94297C8.58319 3.11845 8.03672 3.34907 7.51531 3.62983L6.13658 2.63714C5.88591 2.45665 5.58509 2.3614 5.27425 2.3614C4.87818 2.3614 4.50217 2.51682 4.22642 2.79758L2.72737 4.29162C2.21599 4.80301 2.1458 5.61019 2.56694 6.2018L3.56965 7.61061C3.2939 8.13704 3.07331 8.68352 2.90284 9.25005L1.23835 9.53081C0.521409 9.65114 0 10.2678 0 10.9948V13.1055C0 13.8325 0.521409 14.4491 1.23835 14.5695L2.94295 14.8602C3.11843 15.4218 3.34905 15.9682 3.62981 16.4897L2.64214 17.8634C2.221 18.455 2.28618 19.2622 2.80257 19.7736L4.29661 21.2676C4.57737 21.5484 4.94837 21.7038 5.34444 21.7038C5.65528 21.7038 5.95108 21.6085 6.20176 21.428L7.61057 20.4253C8.11694 20.691 8.64837 20.9066 9.19485 21.0771L9.47561 22.7616C9.59593 23.4786 10.2126 24 10.9396 24H13.0553C13.7822 24 14.3989 23.4786 14.5192 22.7616L14.805 21.0771C15.3715 20.9016 15.918 20.676 16.4394 20.4003L17.8282 21.3929C18.0789 21.5734 18.3797 21.6687 18.6905 21.6687C19.0866 21.6687 19.4576 21.5133 19.7383 21.2325L21.2324 19.7385C21.7438 19.2271 21.814 18.4199 21.3928 17.8283L20.4001 16.4345C20.6759 15.9081 20.9065 15.3616 21.077 14.8001L22.7615 14.5193C23.4784 14.399 23.9999 13.7823 23.9999 13.0554V10.9446C24.0099 10.2177 23.4885 9.601 22.7715 9.48068ZM22.6562 13.0554C22.6562 13.1205 22.6111 13.1757 22.5459 13.1857L20.4402 13.5367C20.1745 13.5818 19.964 13.7773 19.8988 14.033C19.7083 14.77 19.4175 15.4769 19.0264 16.1337C18.8911 16.3643 18.9011 16.6501 19.0565 16.8707L20.2948 18.6154C20.3299 18.6656 20.3249 18.7408 20.2798 18.7859L18.7858 20.2799C18.7507 20.315 18.7156 20.32 18.6905 20.32C18.6604 20.32 18.6354 20.31 18.6153 20.295L16.8756 19.0566C16.66 18.9012 16.3692 18.8912 16.1386 19.0265C15.4818 19.4176 14.7749 19.7084 14.0379 19.8989C13.7772 19.9641 13.5817 20.1797 13.5416 20.4404L13.1856 22.5461C13.1756 22.6112 13.1205 22.6564 13.0553 22.6564H10.9446C10.8794 22.6564 10.8243 22.6112 10.8142 22.5461L10.4633 20.4404C10.4182 20.1746 10.2226 19.9641 9.96693 19.8989C9.25 19.7134 8.55813 19.4276 7.91138 19.0566C7.8061 18.9965 7.68577 18.9664 7.57046 18.9664C7.43509 18.9664 7.29471 19.0065 7.1794 19.0917L5.42466 20.3401C5.39959 20.3551 5.37452 20.3652 5.34946 20.3652C5.3294 20.3652 5.28929 20.3601 5.2542 20.325L3.76016 18.831C3.71504 18.7859 3.71003 18.7157 3.74512 18.6605L4.97845 16.9309C5.13387 16.7103 5.1439 16.4195 5.00854 16.1888C4.61748 15.5371 4.31667 14.8302 4.12615 14.0932C4.05596 13.8375 3.84539 13.6419 3.58469 13.5968L1.46396 13.2358C1.39878 13.2258 1.35366 13.1707 1.35366 13.1055V10.9948C1.35366 10.9296 1.39878 10.8745 1.46396 10.8644L3.55461 10.5135C3.82032 10.4684 4.03591 10.2728 4.10108 10.0121C4.28658 9.27512 4.57236 8.56319 4.9584 7.90641C5.09377 7.67579 5.07872 7.39001 4.9233 7.17443L3.67493 5.41968C3.63984 5.36954 3.64485 5.29434 3.68997 5.24922L5.18401 3.75517C5.2191 3.72008 5.2542 3.71506 5.27927 3.71506C5.30935 3.71506 5.33442 3.72509 5.35447 3.74013L7.08414 4.97347C7.30474 5.12889 7.59553 5.13892 7.82615 5.00355C8.47791 4.61249 9.18482 4.31168 9.92181 4.12116C10.1775 4.05097 10.373 3.8404 10.4182 3.5797L10.7791 1.45895C10.7892 1.39377 10.8443 1.34865 10.9095 1.34865H13.0202C13.0854 1.34865 13.1405 1.39377 13.1505 1.45895L13.5015 3.54961C13.5466 3.81533 13.7421 4.03092 14.0028 4.09609C14.7599 4.28661 15.4818 4.58241 16.1537 4.97848C16.3843 5.11385 16.67 5.10382 16.8906 4.9484L18.6203 3.70503C18.6454 3.68999 18.6705 3.67997 18.6955 3.67997C18.7156 3.67997 18.7557 3.68498 18.7908 3.72008L20.2848 5.21412C20.3299 5.25924 20.335 5.32943 20.2999 5.38458L19.0615 7.12429C18.9061 7.33988 18.8961 7.63067 19.0314 7.86129C19.4225 8.51807 19.7133 9.22498 19.9038 9.96198C19.969 10.2227 20.1845 10.4182 20.4453 10.4583L22.5509 10.8143C22.6161 10.8243 22.6612 10.8795 22.6612 10.9446V13.0554H22.6562Z"></path>
    <path d="M12.0024 6.81847C9.14471 6.81847 6.82344 9.13975 6.82344 11.9975C6.82344 14.8552 9.14471 17.1765 12.0024 17.1765C14.8602 17.1765 17.1814 14.8552 17.1814 11.9975C17.1814 9.13975 14.8602 6.81847 12.0024 6.81847ZM12.0024 15.8229C9.89173 15.8229 8.1771 14.1082 8.1771 11.9975C8.1771 9.88678 9.89173 8.17213 12.0024 8.17213C14.1131 8.17213 15.8278 9.88678 15.8278 11.9975C15.8278 14.1082 14.1131 15.8229 12.0024 15.8229Z"></path>
  </g>
</symbol><symbol viewBox="0 0 24 24" id="speed-math-world">
  <path d="M2.21813 5.07321C2.21853 5.06548 2.21938 5.05774 2.22069 5.05005C2.25068 5.0072 2.28756 4.97033 2.31846 4.92833C2.54254 4.62309 2.77977 4.3293 3.03013 4.04691C3.09871 3.96975 3.16734 3.89344 3.23762 3.81798C3.49541 3.54193 3.76581 3.27868 4.04877 3.02835C4.10107 2.98203 4.14995 2.93405 4.20226 2.88859C4.8996 2.29122 5.66317 1.77568 6.47793 1.35218C6.51054 1.33505 6.5448 1.32048 6.57826 1.3033C6.94111 1.11893 7.31314 0.953192 7.69297 0.806851C7.77873 0.776005 7.85676 0.746817 7.9382 0.721095C8.27602 0.59937 8.61901 0.492766 8.96714 0.401284C9.07003 0.373854 9.17292 0.345571 9.27753 0.321557C9.62052 0.24183 9.96347 0.180943 10.3142 0.131208C10.4205 0.115785 10.5251 0.0951874 10.6323 0.0823266C11.5356 -0.0274422 12.4489 -0.0274422 13.3522 0.0823266C13.4594 0.0951874 13.564 0.115785 13.6703 0.131208C14.021 0.180943 14.3674 0.24183 14.707 0.321557C14.8116 0.345571 14.9145 0.373854 15.0174 0.401284C15.3678 0.492716 15.7108 0.59932 16.0463 0.721095C16.1321 0.750233 16.2101 0.779421 16.2916 0.806851C16.6713 0.953192 17.0434 1.11888 17.4063 1.3033C17.4397 1.32043 17.474 1.335 17.5066 1.35218C18.3241 1.77523 19.0902 2.29071 19.79 2.88859C19.8423 2.934 19.8912 2.98203 19.9435 3.02835C20.2293 3.27984 20.4997 3.54308 20.7546 3.81798C20.8249 3.89344 20.8936 3.96975 20.9621 4.04691C21.2131 4.3287 21.4503 4.62248 21.6738 4.92828C21.7047 4.97028 21.7415 5.00715 21.7716 5.05C21.7755 5.05749 21.779 5.06523 21.7819 5.07316C24.7394 9.2176 24.7394 14.7824 21.7819 18.9268C21.779 18.9347 21.7755 18.9425 21.7716 18.9499C21.7416 18.9928 21.7047 19.0297 21.6738 19.0717C21.4503 19.3769 21.2131 19.6707 20.9621 19.9531C20.8936 20.0303 20.8249 20.1066 20.7546 20.182C20.4962 20.4581 20.2259 20.7213 19.9435 20.9717C19.8912 21.018 19.8423 21.0659 19.79 21.1114C19.0927 21.7088 18.3291 22.2243 17.5143 22.6478C17.4817 22.665 17.4475 22.6795 17.414 22.6967C17.0512 22.8811 16.6791 23.0468 16.2993 23.1931C16.2135 23.224 16.1355 23.2532 16.0541 23.2789C15.7162 23.4006 15.3732 23.5072 15.0251 23.5987C14.9222 23.6261 14.8193 23.6544 14.7147 23.6784C14.3717 23.7582 14.0288 23.8191 13.6781 23.8688C13.5717 23.8842 13.4671 23.9048 13.3599 23.9177C12.4566 24.0274 11.5434 24.0274 10.6401 23.9177C10.5329 23.9048 10.4283 23.8842 10.3219 23.8688C9.97126 23.8191 9.62484 23.7582 9.28526 23.6784C9.18066 23.6544 9.07777 23.6261 8.97487 23.5987C8.62389 23.5073 8.28089 23.4007 7.94593 23.2789C7.86017 23.2498 7.78215 23.2206 7.7007 23.1931C7.32093 23.0468 6.94885 22.8811 6.586 22.6967C6.55254 22.6796 6.51828 22.665 6.48567 22.6478C5.67091 22.2243 4.90734 21.7088 4.20999 21.1114C4.15769 21.0659 4.10881 21.018 4.05651 20.9717C3.77068 20.7207 3.50028 20.4575 3.24536 20.182C3.17507 20.1066 3.10644 20.0303 3.03786 19.9531C2.78691 19.6707 2.54967 19.3769 2.3262 19.0717C2.29535 19.0297 2.25847 18.9928 2.22843 18.9499C2.22451 18.9425 2.22104 18.9347 2.21813 18.9268C-0.739375 14.7824 -0.739375 9.21765 2.21813 5.07321ZM3.19648 6.69543C2.37644 8.04586 1.88126 9.56826 1.74998 11.1427H6.88609C6.949 10.1211 7.10977 9.10788 7.36625 8.117C5.91543 7.84532 4.51114 7.36655 3.19648 6.69543ZM9.8143 1.94804C9.76627 1.9592 9.72 1.97462 9.67197 1.98577C9.365 2.05781 9.06059 2.1401 8.76306 2.24299C8.71759 2.25841 8.67303 2.27645 8.62841 2.29272C8.33344 2.39561 8.0428 2.50965 7.75808 2.63569C7.70834 2.65885 7.65946 2.68457 7.60972 2.70773C7.33706 2.8375 7.07068 2.97781 6.81058 3.12872L6.63911 3.23246C6.39217 3.38338 6.15207 3.54484 5.91885 3.7169C5.85881 3.76061 5.79882 3.80266 5.73964 3.85064C5.51099 4.0221 5.29204 4.20586 5.08283 4.40194C5.02797 4.45168 4.97135 4.50056 4.91734 4.552C4.69784 4.76034 4.48863 4.98068 4.28626 5.20875C4.26053 5.23875 4.2331 5.26618 4.20738 5.29451C5.36841 5.84777 6.59836 6.24284 7.86439 6.46911C8.45091 4.85689 9.22568 3.31953 10.1726 1.88896C10.0536 1.91037 9.93177 1.92237 9.8143 1.94804ZM15.3946 11.1426C15.327 10.215 15.169 9.29607 14.923 8.39903C13.9515 8.51443 12.974 8.57165 11.9956 8.57049C11.0164 8.57019 10.038 8.51151 9.06571 8.39471C8.82013 9.29321 8.66303 10.2136 8.59671 11.1426H15.3946ZM8.59671 12.8575C8.66433 13.7851 8.82229 14.704 9.06832 15.6011C10.0398 15.4857 11.0173 15.4285 11.9957 15.4296C12.9749 15.4285 13.9532 15.4857 14.9256 15.6011C15.1709 14.704 15.328 13.7851 15.3947 12.8575H8.59671V12.8575ZM11.9957 2.27047C11.0199 3.65335 10.2173 5.15068 9.60595 6.72889C10.3997 6.81319 11.1974 6.85554 11.9957 6.85579C12.7931 6.85483 13.5899 6.81223 14.3828 6.72803C13.7707 5.15088 12.9691 3.65406 11.9957 2.27047ZM19.7041 5.20785C19.5026 4.97977 19.2926 4.75943 19.0731 4.5511C19.0191 4.49965 18.9624 4.45077 18.9076 4.40104C18.6961 4.20843 18.4771 4.02466 18.2508 3.84973C18.1916 3.80427 18.1316 3.76398 18.0716 3.716C17.8383 3.54454 17.5982 3.38303 17.3513 3.23156L17.1798 3.12782C16.9197 2.9758 16.6533 2.83544 16.3807 2.70683C16.3309 2.68367 16.2821 2.65795 16.2323 2.63479C15.9477 2.50618 15.657 2.39214 15.362 2.29182C15.3174 2.27554 15.2762 2.25751 15.2274 2.24208C14.9299 2.14261 14.6272 2.06032 14.3185 1.98487C14.2705 1.97372 14.2242 1.95829 14.1753 1.94799C14.0578 1.92227 13.936 1.91027 13.8169 1.88881C14.7642 3.31963 15.5392 4.85729 16.126 6.46981C17.392 6.24355 18.6221 5.84848 19.783 5.29521C19.7573 5.26527 19.7299 5.23784 19.7041 5.20785ZM20.7948 6.69543C19.4805 7.3665 18.0765 7.84526 16.6259 8.117C16.8821 9.10793 17.0426 10.1211 17.1052 11.1427H22.2413C22.11 9.56826 21.6148 8.04586 20.7948 6.69543ZM20.7948 17.3047C21.6149 15.9543 22.11 14.4319 22.2413 12.8575H17.1052C17.0423 13.8791 16.8815 14.8923 16.6251 15.8832C18.0759 16.1548 19.4802 16.6335 20.7948 17.3047ZM14.177 22.0521C14.225 22.0409 14.2713 22.0255 14.3193 22.0143C14.6263 21.9423 14.9307 21.86 15.2283 21.7571C15.2737 21.7417 15.3183 21.7237 15.3629 21.7074C15.6579 21.6045 15.9485 21.4905 16.2332 21.3644C16.283 21.3412 16.3319 21.3155 16.3816 21.2924C16.6542 21.1626 16.9206 21.0223 17.1807 20.8714L17.3522 20.7676C17.5991 20.6167 17.8392 20.4553 18.0725 20.2832C18.1325 20.2395 18.1925 20.1974 18.2517 20.1495C18.4803 19.978 18.6993 19.7942 18.9085 19.5982C18.9633 19.5484 19.02 19.4995 19.074 19.4481C19.2935 19.2398 19.5027 19.0194 19.7051 18.7913C19.7308 18.7614 19.7582 18.7339 19.7839 18.7056C18.6229 18.1523 17.3929 17.7573 16.1269 17.531C15.5404 19.1432 14.7656 20.6806 13.8187 22.1111C13.9378 22.0898 14.0595 22.0778 14.177 22.0521ZM11.9957 21.7297C12.9715 20.3468 13.774 18.8495 14.3854 17.2713C12.7974 17.1004 11.1957 17.1004 9.60771 17.2713L9.60857 17.2721C10.2206 18.8492 11.0222 20.346 11.9957 21.7297ZM4.28716 18.7922C4.48868 19.0203 4.69874 19.2407 4.91824 19.449C4.97225 19.5004 5.02888 19.5493 5.08374 19.5991C5.29525 19.7923 5.51421 19.976 5.74054 20.1504C5.79973 20.1958 5.85971 20.2404 5.91975 20.2841C6.15297 20.4556 6.39308 20.6171 6.64001 20.7685L6.81149 20.8723C7.07103 21.0237 7.33741 21.1641 7.61062 21.2933C7.66036 21.3164 7.70925 21.3422 7.75898 21.3653C8.04365 21.4939 8.33435 21.608 8.62931 21.7083C8.67388 21.7246 8.71508 21.7426 8.76391 21.758C9.06144 21.8575 9.36414 21.9398 9.67283 22.0152C9.72086 22.0264 9.76713 22.0418 9.81601 22.0521C9.93348 22.0778 10.0553 22.0898 10.1744 22.1113C9.22749 20.6807 8.45267 19.1434 7.8662 17.5311C6.60017 17.7574 5.37016 18.1525 4.20919 18.7057C4.23401 18.7348 4.26144 18.7623 4.28716 18.7922ZM3.19648 17.3047C4.51084 16.6336 5.91483 16.1549 7.3654 15.8832C7.10922 14.8922 6.94869 13.879 6.88609 12.8575H1.74998C1.88131 14.4318 2.37649 15.9542 3.19648 17.3047Z" fill="currentColor"></path>
</symbol></svg>