<svg width="24" height="24" viewBox="0 0 24 24" fill="none" xmlns="http://www.w3.org/2000/svg">
    <g opacity="0.5" filter="url(#filter0_i_1281_5861)">
        <path d="M5.14286 7C7.82142 7 10.7143 9.52251 12 10.7858C13.2857 9.52251 16.1786 7 18.8571 7C22.0774 7 24 8.86919 24 12C24 15.1308 22.0774 17 18.8571 17C16.1786 17 13.2857 14.4775 12 13.2142C10.7143 14.4775 7.82142 17 5.14286 17C1.92255 17 -5.72107e-07 15.1308 -5.72107e-07 12C-5.72107e-07 8.86919 1.9226 7 5.14286 7ZM18.8572 15.9167C21.132 15.9167 22.8858 14.2117 22.8858 12C22.8858 9.78833 21.132 8.08332 18.8572 8.08332C16.9715 8.08332 13.8686 10.7325 12.576 12C13.866 13.2692 16.9638 15.9167 18.8572 15.9167ZM5.14286 15.9167C7.0286 15.9167 10.1314 13.2675 11.424 12C10.1383 10.7317 7.03628 8.08332 5.14286 8.08332C2.868 8.08332 1.11427 9.78833 1.11427 12C1.11427 14.2117 2.868 15.9167 5.14286 15.9167Z" fill="#C9CDE1"/>
    </g>
    <defs>
        <filter id="filter0_i_1281_5861" x="0" y="7" width="25" height="12" filterUnits="userSpaceOnUse" color-interpolation-filters="sRGB">
            <feFlood flood-opacity="0" result="BackgroundImageFix"/>
            <feBlend mode="normal" in="SourceGraphic" in2="BackgroundImageFix" result="shape"/>
            <feColorMatrix in="SourceAlpha" type="matrix" values="0 0 0 0 0 0 0 0 0 0 0 0 0 0 0 0 0 0 127 0" result="hardAlpha"/>
            <feOffset dx="1" dy="2"/>
            <feGaussianBlur stdDeviation="1"/>
            <feComposite in2="hardAlpha" operator="arithmetic" k2="-1" k3="1"/>
            <feColorMatrix type="matrix" values="0 0 0 0 0.629306 0 0 0 0 0.65547 0 0 0 0 0.766667 0 0 0 1 0"/>
            <feBlend mode="normal" in2="shape" result="effect1_innerShadow_1281_5861"/>
        </filter>
    </defs>
</svg>
